%TF.GenerationSoftware,KiCad,Pcbnew,9.0.7*%
%TF.CreationDate,2026-02-11T22:12:03-05:00*%
%TF.ProjectId,HeatwaveCapstone,48656174-7761-4766-9543-617073746f6e,rev?*%
%TF.SameCoordinates,Original*%
%TF.FileFunction,Copper,L2,Inr*%
%TF.FilePolarity,Positive*%
%FSLAX46Y46*%
G04 Gerber Fmt 4.6, Leading zero omitted, Abs format (unit mm)*
G04 Created by KiCad (PCBNEW 9.0.7) date 2026-02-11 22:12:03*
%MOMM*%
%LPD*%
G01*
G04 APERTURE LIST*
%TA.AperFunction,ComponentPad*%
%ADD10R,1.500000X1.500000*%
%TD*%
%TA.AperFunction,ComponentPad*%
%ADD11C,1.500000*%
%TD*%
%TA.AperFunction,ComponentPad*%
%ADD12R,1.700000X1.700000*%
%TD*%
%TA.AperFunction,ComponentPad*%
%ADD13C,1.700000*%
%TD*%
%TA.AperFunction,ComponentPad*%
%ADD14C,1.600000*%
%TD*%
%TA.AperFunction,ViaPad*%
%ADD15C,0.685800*%
%TD*%
%TA.AperFunction,ViaPad*%
%ADD16C,0.889000*%
%TD*%
G04 APERTURE END LIST*
D10*
%TO.N,+5V*%
%TO.C,U8*%
X141150000Y-132325000D03*
D11*
%TO.N,/DHT_Data*%
X141150000Y-134865000D03*
%TO.N,unconnected-(U8-NC-Pad3)*%
X141150000Y-137405000D03*
%TO.N,GND*%
X141150000Y-139945000D03*
%TD*%
D12*
%TO.N,/NRST*%
%TO.C,J2*%
X111840000Y-104000000D03*
D13*
%TO.N,/SWO*%
X114380000Y-104000000D03*
%TO.N,/SWCLK*%
X116920000Y-104000000D03*
%TO.N,/SWDIO*%
X119460000Y-104000000D03*
%TO.N,GND*%
X122000000Y-104000000D03*
%TO.N,+3V3*%
X124540000Y-104000000D03*
%TD*%
D14*
%TO.N,unconnected-(S2-Pad1)*%
%TO.C,S2*%
X135000000Y-116500000D03*
%TO.N,/NRST*%
X141500000Y-116500000D03*
%TO.N,unconnected-(S2-Pad3)*%
X135000000Y-121000000D03*
%TO.N,GND*%
X141500000Y-121000000D03*
%TD*%
D12*
%TO.N,Net-(J1-Pin_1)*%
%TO.C,J1*%
X131275000Y-104000000D03*
D13*
%TO.N,GND*%
X128735000Y-104000000D03*
%TD*%
D15*
%TO.N,GND*%
X129830100Y-114700000D03*
X102963382Y-132230052D03*
X127500000Y-110500000D03*
X110000000Y-134000000D03*
D16*
X135000000Y-135075000D03*
D15*
X114959514Y-120187869D03*
X106000000Y-132200000D03*
X86220000Y-141400000D03*
X125600000Y-122000000D03*
X127000000Y-143557100D03*
X111200000Y-124800000D03*
X121600000Y-137000000D03*
X92600000Y-127500000D03*
X119600000Y-130000000D03*
X92550000Y-125550000D03*
X110400000Y-118800000D03*
X129289955Y-109310045D03*
X112000000Y-111500000D03*
X106200000Y-127200000D03*
X105700000Y-117300000D03*
X99125000Y-130925000D03*
X113200000Y-110800000D03*
X125000000Y-134500000D03*
D16*
X141150000Y-143275000D03*
D15*
X113100000Y-112500000D03*
X81200000Y-133800000D03*
X123400000Y-143557100D03*
X113000000Y-124800000D03*
D16*
X141500000Y-122950000D03*
D15*
X118500000Y-125700000D03*
X119000000Y-111000000D03*
X110000000Y-112800000D03*
X124600000Y-127800000D03*
X106500000Y-122500000D03*
%TO.N,+3V3*%
X105300000Y-106900000D03*
X80600000Y-123000000D03*
X119000000Y-138000000D03*
X130500000Y-113700000D03*
X115100000Y-109400000D03*
X119692900Y-132400000D03*
X105000000Y-125500000D03*
X102600000Y-137400000D03*
X111973691Y-132573691D03*
X116000000Y-133000000D03*
X81300000Y-135800000D03*
X123100000Y-127100000D03*
D16*
X91000000Y-131000000D03*
D15*
X116000000Y-140000000D03*
D16*
X87915000Y-143400000D03*
D15*
X109200000Y-124800000D03*
X126200000Y-127700000D03*
X105200000Y-105200000D03*
%TO.N,+1V8*%
X102622545Y-130777455D03*
X89600000Y-126400000D03*
X92200000Y-124000000D03*
X99000000Y-129825000D03*
X108000000Y-134000000D03*
%TO.N,/NRST*%
X118800000Y-117450000D03*
X114800000Y-121800000D03*
%TO.N,/SWO*%
X123100000Y-110000000D03*
%TO.N,/SWDIO*%
X130500000Y-115500000D03*
%TO.N,/SWCLK*%
X126000000Y-110000000D03*
%TO.N,/DHT11_GPIO*%
X120600000Y-125600789D03*
X131300000Y-138900000D03*
%TO.N,/I2C1_SCL*%
X119000000Y-134000000D03*
X117307100Y-135500000D03*
D16*
X96000000Y-141000000D03*
D15*
%TO.N,/I2C1_SDA*%
X89000000Y-137000000D03*
%TO.N,/SPI2_CLK*%
X105000000Y-116600000D03*
X124600000Y-122200000D03*
%TO.N,/SPI2_MOSI*%
X113174900Y-119826100D03*
X105980000Y-115200000D03*
%TO.N,/SPI2_MISO*%
X103200000Y-113800000D03*
X115093505Y-118386405D03*
%TO.N,/SPI2_CS*%
X110600000Y-109000000D03*
X117970237Y-118694075D03*
X95400000Y-113900000D03*
%TO.N,/SPI2_IRQ*%
X78900000Y-121100000D03*
X100000000Y-124000000D03*
%TD*%
M02*
