%TF.GenerationSoftware,KiCad,Pcbnew,9.0.7*%
%TF.CreationDate,2026-02-11T22:12:04-05:00*%
%TF.ProjectId,HeatwaveCapstone,48656174-7761-4766-9543-617073746f6e,rev?*%
%TF.SameCoordinates,Original*%
%TF.FileFunction,Soldermask,Top*%
%TF.FilePolarity,Negative*%
%FSLAX46Y46*%
G04 Gerber Fmt 4.6, Leading zero omitted, Abs format (unit mm)*
G04 Created by KiCad (PCBNEW 9.0.7) date 2026-02-11 22:12:04*
%MOMM*%
%LPD*%
G01*
G04 APERTURE LIST*
G04 Aperture macros list*
%AMRoundRect*
0 Rectangle with rounded corners*
0 $1 Rounding radius*
0 $2 $3 $4 $5 $6 $7 $8 $9 X,Y pos of 4 corners*
0 Add a 4 corners polygon primitive as box body*
4,1,4,$2,$3,$4,$5,$6,$7,$8,$9,$2,$3,0*
0 Add four circle primitives for the rounded corners*
1,1,$1+$1,$2,$3*
1,1,$1+$1,$4,$5*
1,1,$1+$1,$6,$7*
1,1,$1+$1,$8,$9*
0 Add four rect primitives between the rounded corners*
20,1,$1+$1,$2,$3,$4,$5,0*
20,1,$1+$1,$4,$5,$6,$7,0*
20,1,$1+$1,$6,$7,$8,$9,0*
20,1,$1+$1,$8,$9,$2,$3,0*%
G04 Aperture macros list end*
%ADD10RoundRect,0.250000X0.250000X0.275000X-0.250000X0.275000X-0.250000X-0.275000X0.250000X-0.275000X0*%
%ADD11RoundRect,0.102000X-0.600000X0.508000X-0.600000X-0.508000X0.600000X-0.508000X0.600000X0.508000X0*%
%ADD12RoundRect,0.250000X-0.275000X0.250000X-0.275000X-0.250000X0.275000X-0.250000X0.275000X0.250000X0*%
%ADD13RoundRect,0.050000X0.500000X-0.500000X0.500000X0.500000X-0.500000X0.500000X-0.500000X-0.500000X0*%
%ADD14RoundRect,0.250000X-0.250000X-0.275000X0.250000X-0.275000X0.250000X0.275000X-0.250000X0.275000X0*%
%ADD15RoundRect,0.225000X-0.225000X-0.300000X0.225000X-0.300000X0.225000X0.300000X-0.225000X0.300000X0*%
%ADD16RoundRect,0.225000X0.300000X-0.225000X0.300000X0.225000X-0.300000X0.225000X-0.300000X-0.225000X0*%
%ADD17RoundRect,0.050000X-0.500000X-0.500000X0.500000X-0.500000X0.500000X0.500000X-0.500000X0.500000X0*%
%ADD18RoundRect,0.050000X-0.750000X-0.750000X0.750000X-0.750000X0.750000X0.750000X-0.750000X0.750000X0*%
%ADD19C,1.600000*%
%ADD20RoundRect,0.050000X0.850000X-0.850000X0.850000X0.850000X-0.850000X0.850000X-0.850000X-0.850000X0*%
%ADD21C,1.800000*%
%ADD22C,1.804000*%
%ADD23RoundRect,0.059550X-0.647450X-0.337450X0.647450X-0.337450X0.647450X0.337450X-0.647450X0.337450X0*%
%ADD24RoundRect,0.250000X0.275000X-0.250000X0.275000X0.250000X-0.275000X0.250000X-0.275000X-0.250000X0*%
%ADD25RoundRect,0.225000X0.225000X0.300000X-0.225000X0.300000X-0.225000X-0.300000X0.225000X-0.300000X0*%
%ADD26RoundRect,0.225000X-0.300000X0.225000X-0.300000X-0.225000X0.300000X-0.225000X0.300000X0.225000X0*%
%ADD27RoundRect,0.102000X-0.250000X-0.175000X0.250000X-0.175000X0.250000X0.175000X-0.250000X0.175000X0*%
%ADD28C,1.000000*%
%ADD29RoundRect,0.270000X1.030000X-0.405000X1.030000X0.405000X-1.030000X0.405000X-1.030000X-0.405000X0*%
%ADD30RoundRect,0.100000X-0.725000X-0.100000X0.725000X-0.100000X0.725000X0.100000X-0.725000X0.100000X0*%
%ADD31RoundRect,0.100000X-0.100000X-0.725000X0.100000X-0.725000X0.100000X0.725000X-0.100000X0.725000X0*%
%ADD32RoundRect,0.102000X0.400000X0.400000X-0.400000X0.400000X-0.400000X-0.400000X0.400000X-0.400000X0*%
%ADD33RoundRect,0.102000X-0.600000X-0.500000X0.600000X-0.500000X0.600000X0.500000X-0.600000X0.500000X0*%
%ADD34RoundRect,0.102000X-0.500000X-0.600000X0.500000X-0.600000X0.500000X0.600000X-0.500000X0.600000X0*%
%ADD35RoundRect,0.075500X-0.736500X-0.226500X0.736500X-0.226500X0.736500X0.226500X-0.736500X0.226500X0*%
%ADD36RoundRect,0.102000X-0.525000X-0.650000X0.525000X-0.650000X0.525000X0.650000X-0.525000X0.650000X0*%
%ADD37RoundRect,0.050000X-0.850000X0.850000X-0.850000X-0.850000X0.850000X-0.850000X0.850000X0.850000X0*%
%ADD38RoundRect,0.050000X-0.127000X0.368300X-0.127000X-0.368300X0.127000X-0.368300X0.127000X0.368300X0*%
G04 APERTURE END LIST*
D10*
%TO.C,C21*%
X130775000Y-107850000D03*
X129225000Y-107850000D03*
%TD*%
D11*
%TO.C,U10*%
X123500000Y-137100000D03*
X123500000Y-139000000D03*
X125620000Y-138050000D03*
%TD*%
D12*
%TO.C,C16*%
X121600000Y-127125000D03*
X121600000Y-128675000D03*
%TD*%
%TO.C,C15*%
X112000000Y-117250000D03*
X112000000Y-118800000D03*
%TD*%
D13*
%TO.C,TP9*%
X97800000Y-115900000D03*
%TD*%
D14*
%TO.C,C19*%
X80625000Y-120900000D03*
X82175000Y-120900000D03*
%TD*%
D12*
%TO.C,C20*%
X136550000Y-133525000D03*
X136550000Y-135075000D03*
%TD*%
D15*
%TO.C,R13*%
X113175000Y-140000000D03*
X114825000Y-140000000D03*
%TD*%
D12*
%TO.C,C11*%
X111100000Y-121850000D03*
X111100000Y-123400000D03*
%TD*%
D16*
%TO.C,R12*%
X116000000Y-136000000D03*
X116000000Y-134350000D03*
%TD*%
D17*
%TO.C,TP4*%
X96000000Y-138600000D03*
%TD*%
D18*
%TO.C,U8*%
X141150000Y-132325000D03*
D19*
X141150000Y-134865000D03*
X141150000Y-137405000D03*
X141150000Y-139945000D03*
%TD*%
D20*
%TO.C,J2*%
X111840000Y-104000000D03*
D21*
X114380000Y-104000000D03*
X116920000Y-104000000D03*
X119460000Y-104000000D03*
X122000000Y-104000000D03*
X124540000Y-104000000D03*
%TD*%
D22*
%TO.C,S2*%
X135000000Y-116500000D03*
X141500000Y-116500000D03*
X135000000Y-121000000D03*
X141500000Y-121000000D03*
%TD*%
D12*
%TO.C,C3*%
X119600000Y-127125000D03*
X119600000Y-128675000D03*
%TD*%
D17*
%TO.C,TP6*%
X108200000Y-108700000D03*
%TD*%
D15*
%TO.C,R2*%
X121350000Y-134500000D03*
X123000000Y-134500000D03*
%TD*%
D12*
%TO.C,C8*%
X123500000Y-140825000D03*
X123500000Y-142375000D03*
%TD*%
D23*
%TO.C,U3*%
X107445000Y-129475000D03*
X107445000Y-130425000D03*
X107445000Y-131375000D03*
X109955000Y-131375000D03*
X109955000Y-129475000D03*
%TD*%
D16*
%TO.C,R8*%
X109100000Y-123450000D03*
X109100000Y-121800000D03*
%TD*%
D17*
%TO.C,TP10*%
X104800000Y-120800000D03*
%TD*%
D24*
%TO.C,C12*%
X112000000Y-115600000D03*
X112000000Y-114050000D03*
%TD*%
D25*
%TO.C,R5*%
X106500000Y-124000000D03*
X104850000Y-124000000D03*
%TD*%
D13*
%TO.C,TP8*%
X97500000Y-113500000D03*
%TD*%
D12*
%TO.C,C4*%
X127000000Y-140825000D03*
X127000000Y-142375000D03*
%TD*%
D17*
%TO.C,TP20*%
X136300000Y-142200000D03*
%TD*%
D26*
%TO.C,R10*%
X136525000Y-137150000D03*
X136525000Y-138800000D03*
%TD*%
%TO.C,R14*%
X101000000Y-128175000D03*
X101000000Y-129825000D03*
%TD*%
D15*
%TO.C,R11*%
X111975000Y-134000000D03*
X113625000Y-134000000D03*
%TD*%
%TO.C,R3*%
X100975000Y-139000000D03*
X102625000Y-139000000D03*
%TD*%
D17*
%TO.C,TP13*%
X106000000Y-140000000D03*
%TD*%
%TO.C,TP3_3V3*%
X119000000Y-140800000D03*
%TD*%
D24*
%TO.C,C22*%
X113100000Y-123400000D03*
X113100000Y-121850000D03*
%TD*%
D10*
%TO.C,C13*%
X116175000Y-112600000D03*
X114625000Y-112600000D03*
%TD*%
D12*
%TO.C,C1*%
X105275000Y-129025000D03*
X105275000Y-130575000D03*
%TD*%
D17*
%TO.C,TP15*%
X112400000Y-130600000D03*
%TD*%
D27*
%TO.C,U2*%
X86000000Y-124000000D03*
X86000000Y-124800000D03*
X86000000Y-125600000D03*
X86000000Y-126400000D03*
X86000000Y-127200000D03*
X86000000Y-128000000D03*
X86000000Y-128800000D03*
X88150000Y-128800000D03*
X88150000Y-128000000D03*
X88150000Y-127200000D03*
X88150000Y-126400000D03*
X88150000Y-125600000D03*
X88150000Y-124800000D03*
X88150000Y-124000000D03*
%TD*%
D13*
%TO.C,TP7*%
X97800000Y-118600000D03*
%TD*%
D12*
%TO.C,C7*%
X91000000Y-124000000D03*
X91000000Y-125550000D03*
%TD*%
D28*
%TO.C,SW1*%
X139000000Y-111650000D03*
X139000000Y-104850000D03*
D29*
X136250000Y-110750000D03*
X136250000Y-108250000D03*
X136250000Y-105750000D03*
%TD*%
D30*
%TO.C,U6*%
X116675000Y-114450000D03*
X116675000Y-114950000D03*
X116675000Y-115450000D03*
X116675000Y-115950000D03*
X116675000Y-116450000D03*
X116675000Y-116950000D03*
X116675000Y-117450000D03*
X116675000Y-117950000D03*
X116675000Y-118450000D03*
X116675000Y-118950000D03*
X116675000Y-119450000D03*
X116675000Y-119950000D03*
X116675000Y-120450000D03*
X116675000Y-120950000D03*
X116675000Y-121450000D03*
X116675000Y-121950000D03*
D31*
X118600000Y-123875000D03*
X119100000Y-123875000D03*
X119600000Y-123875000D03*
X120100000Y-123875000D03*
X120600000Y-123875000D03*
X121100000Y-123875000D03*
X121600000Y-123875000D03*
X122100000Y-123875000D03*
X122600000Y-123875000D03*
X123100000Y-123875000D03*
X123600000Y-123875000D03*
X124100000Y-123875000D03*
X124600000Y-123875000D03*
X125100000Y-123875000D03*
X125600000Y-123875000D03*
X126100000Y-123875000D03*
D30*
X128025000Y-121950000D03*
X128025000Y-121450000D03*
X128025000Y-120950000D03*
X128025000Y-120450000D03*
X128025000Y-119950000D03*
X128025000Y-119450000D03*
X128025000Y-118950000D03*
X128025000Y-118450000D03*
X128025000Y-117950000D03*
X128025000Y-117450000D03*
X128025000Y-116950000D03*
X128025000Y-116450000D03*
X128025000Y-115950000D03*
X128025000Y-115450000D03*
X128025000Y-114950000D03*
X128025000Y-114450000D03*
D31*
X126100000Y-112525000D03*
X125600000Y-112525000D03*
X125100000Y-112525000D03*
X124600000Y-112525000D03*
X124100000Y-112525000D03*
X123600000Y-112525000D03*
X123100000Y-112525000D03*
X122600000Y-112525000D03*
X122100000Y-112525000D03*
X121600000Y-112525000D03*
X121100000Y-112525000D03*
X120600000Y-112525000D03*
X120100000Y-112525000D03*
X119600000Y-112525000D03*
X119100000Y-112525000D03*
X118600000Y-112525000D03*
%TD*%
D24*
%TO.C,C9*%
X103000000Y-135175000D03*
X103000000Y-133625000D03*
%TD*%
D32*
%TO.C,D1*%
X121000000Y-132500000D03*
X122500000Y-132500000D03*
%TD*%
D26*
%TO.C,R6*%
X103500000Y-103575000D03*
X103500000Y-105225000D03*
%TD*%
D10*
%TO.C,C17*%
X116175000Y-110900000D03*
X114625000Y-110900000D03*
%TD*%
D24*
%TO.C,C2*%
X91000000Y-129050000D03*
X91000000Y-127500000D03*
%TD*%
D17*
%TO.C,TP16*%
X105000000Y-127000000D03*
%TD*%
%TO.C,TP1*%
X107400000Y-104400000D03*
%TD*%
D33*
%TO.C,U7*%
X80262500Y-113067500D03*
X80262500Y-114337500D03*
X80262500Y-115607500D03*
X80262500Y-116877500D03*
X80262500Y-118147500D03*
D34*
X84262500Y-119147500D03*
D33*
X93762500Y-118147500D03*
X93762500Y-116877500D03*
X93762500Y-115607500D03*
X93762500Y-114337500D03*
X93762500Y-113067500D03*
%TD*%
D35*
%TO.C,U9*%
X109905000Y-135775000D03*
X109905000Y-136425000D03*
X109905000Y-137075000D03*
X109905000Y-137725000D03*
X113445000Y-137725000D03*
X113445000Y-137075000D03*
X113445000Y-136425000D03*
X113445000Y-135775000D03*
%TD*%
D36*
%TO.C,Y1*%
X108250000Y-115000000D03*
X108250000Y-117300000D03*
X110000000Y-117300000D03*
X110000000Y-115000000D03*
%TD*%
D10*
%TO.C,C6*%
X109225000Y-127425000D03*
X107675000Y-127425000D03*
%TD*%
D37*
%TO.C,J1*%
X131275000Y-104000000D03*
D21*
X128735000Y-104000000D03*
%TD*%
D38*
%TO.C,U5*%
X100599998Y-135220400D03*
X99949999Y-135220400D03*
X99300000Y-135220400D03*
X99300000Y-137100000D03*
X99949999Y-137100000D03*
X100599998Y-137100000D03*
%TD*%
D25*
%TO.C,R4*%
X120825000Y-109000000D03*
X119175000Y-109000000D03*
%TD*%
D17*
%TO.C,TP2_5V_1*%
X141700000Y-127300000D03*
%TD*%
D26*
%TO.C,R15*%
X106000000Y-134175000D03*
X106000000Y-135825000D03*
%TD*%
D10*
%TO.C,C18*%
X126075000Y-126200000D03*
X124525000Y-126200000D03*
%TD*%
D17*
%TO.C,TP14*%
X98000000Y-125000000D03*
%TD*%
D16*
%TO.C,R7*%
X103600000Y-108625000D03*
X103600000Y-106975000D03*
%TD*%
D10*
%TO.C,C10*%
X100675000Y-132500000D03*
X99125000Y-132500000D03*
%TD*%
D24*
%TO.C,C14*%
X128600000Y-113075000D03*
X128600000Y-111525000D03*
%TD*%
D17*
%TO.C,TP1_GND1*%
X138800000Y-125600000D03*
%TD*%
%TO.C,TP5*%
X93000000Y-137000000D03*
%TD*%
M02*
