M48
; DRILL file {KiCad 9.0.7} date 2026-02-11T22:12:06-0500
; FORMAT={-:-/ absolute / metric / decimal}
; #@! TF.CreationDate,2026-02-11T22:12:06-05:00
; #@! TF.GenerationSoftware,Kicad,Pcbnew,9.0.7
; #@! TF.FileFunction,Plated,1,4,PTH
FMAT,2
METRIC
; #@! TA.AperFunction,Plated,PTH,ViaDrill
T1C0.330
; #@! TA.AperFunction,Plated,PTH,ViaDrill
T2C0.381
; #@! TA.AperFunction,Plated,PTH,ComponentDrill
T3C0.800
; #@! TA.AperFunction,Plated,PTH,ComponentDrill
T4C1.000
%
G90
G05
T1
X78.9Y-121.1
X80.6Y-123.0
X81.2Y-133.8
X81.3Y-135.8
X86.22Y-141.4
X89.0Y-137.0
X89.6Y-126.4
X92.2Y-124.0
X92.55Y-125.55
X92.6Y-127.5
X95.4Y-113.9
X99.0Y-129.825
X99.125Y-130.925
X100.0Y-124.0
X102.6Y-137.4
X102.623Y-130.777
X102.963Y-132.23
X103.2Y-113.8
X105.0Y-116.6
X105.0Y-125.5
X105.2Y-105.2
X105.3Y-106.9
X105.7Y-117.3
X105.98Y-115.2
X106.0Y-132.2
X106.2Y-127.2
X106.5Y-122.5
X108.0Y-134.0
X109.2Y-124.8
X110.0Y-112.8
X110.0Y-134.0
X110.4Y-118.8
X110.6Y-109.0
X111.2Y-124.8
X111.974Y-132.574
X112.0Y-111.5
X113.0Y-124.8
X113.1Y-112.5
X113.175Y-119.826
X113.2Y-110.8
X114.8Y-121.8
X114.96Y-120.188
X115.094Y-118.386
X115.1Y-109.4
X116.0Y-133.0
X116.0Y-140.0
X117.307Y-135.5
X117.97Y-118.694
X118.5Y-125.7
X118.8Y-117.45
X119.0Y-111.0
X119.0Y-134.0
X119.0Y-138.0
X119.6Y-130.0
X119.693Y-132.4
X120.6Y-125.601
X121.6Y-137.0
X123.1Y-110.0
X123.1Y-127.1
X123.4Y-143.557
X124.6Y-122.2
X124.6Y-127.8
X125.0Y-134.5
X125.6Y-122.0
X126.0Y-110.0
X126.2Y-127.7
X127.0Y-143.557
X127.5Y-110.5
X129.29Y-109.31
X129.83Y-114.7
X130.5Y-113.7
X130.5Y-115.5
X131.3Y-138.9
T2
X87.915Y-143.4
X91.0Y-131.0
X96.0Y-141.0
X135.0Y-135.075
X141.15Y-143.275
X141.5Y-122.95
T3
X141.15Y-132.325
X141.15Y-134.865
X141.15Y-137.405
X141.15Y-139.945
T4
X111.84Y-104.0
X114.38Y-104.0
X116.92Y-104.0
X119.46Y-104.0
X122.0Y-104.0
X124.54Y-104.0
X128.735Y-104.0
X131.275Y-104.0
X135.0Y-116.5
X135.0Y-121.0
X141.5Y-116.5
X141.5Y-121.0
M30
