%TF.GenerationSoftware,KiCad,Pcbnew,9.0.7*%
%TF.CreationDate,2026-02-11T22:12:03-05:00*%
%TF.ProjectId,HeatwaveCapstone,48656174-7761-4766-9543-617073746f6e,rev?*%
%TF.SameCoordinates,Original*%
%TF.FileFunction,Copper,L3,Inr*%
%TF.FilePolarity,Positive*%
%FSLAX46Y46*%
G04 Gerber Fmt 4.6, Leading zero omitted, Abs format (unit mm)*
G04 Created by KiCad (PCBNEW 9.0.7) date 2026-02-11 22:12:03*
%MOMM*%
%LPD*%
G01*
G04 APERTURE LIST*
%TA.AperFunction,ComponentPad*%
%ADD10R,1.500000X1.500000*%
%TD*%
%TA.AperFunction,ComponentPad*%
%ADD11C,1.500000*%
%TD*%
%TA.AperFunction,ComponentPad*%
%ADD12R,1.700000X1.700000*%
%TD*%
%TA.AperFunction,ComponentPad*%
%ADD13C,1.700000*%
%TD*%
%TA.AperFunction,ComponentPad*%
%ADD14C,1.600000*%
%TD*%
%TA.AperFunction,ViaPad*%
%ADD15C,0.685800*%
%TD*%
%TA.AperFunction,ViaPad*%
%ADD16C,0.889000*%
%TD*%
G04 APERTURE END LIST*
D10*
%TO.N,+5V*%
%TO.C,U8*%
X141150000Y-132325000D03*
D11*
%TO.N,/DHT_Data*%
X141150000Y-134865000D03*
%TO.N,unconnected-(U8-NC-Pad3)*%
X141150000Y-137405000D03*
%TO.N,GND*%
X141150000Y-139945000D03*
%TD*%
D12*
%TO.N,/NRST*%
%TO.C,J2*%
X111840000Y-104000000D03*
D13*
%TO.N,/SWO*%
X114380000Y-104000000D03*
%TO.N,/SWCLK*%
X116920000Y-104000000D03*
%TO.N,/SWDIO*%
X119460000Y-104000000D03*
%TO.N,GND*%
X122000000Y-104000000D03*
%TO.N,+3V3*%
X124540000Y-104000000D03*
%TD*%
D14*
%TO.N,unconnected-(S2-Pad1)*%
%TO.C,S2*%
X135000000Y-116500000D03*
%TO.N,/NRST*%
X141500000Y-116500000D03*
%TO.N,unconnected-(S2-Pad3)*%
X135000000Y-121000000D03*
%TO.N,GND*%
X141500000Y-121000000D03*
%TD*%
D12*
%TO.N,Net-(J1-Pin_1)*%
%TO.C,J1*%
X131275000Y-104000000D03*
D13*
%TO.N,GND*%
X128735000Y-104000000D03*
%TD*%
D15*
%TO.N,GND*%
X129830100Y-114700000D03*
X102963382Y-132230052D03*
X127500000Y-110500000D03*
X110000000Y-134000000D03*
D16*
X135000000Y-135075000D03*
D15*
X114959514Y-120187869D03*
X106000000Y-132200000D03*
X86220000Y-141400000D03*
X125600000Y-122000000D03*
X127000000Y-143557100D03*
X111200000Y-124800000D03*
X121600000Y-137000000D03*
X92600000Y-127500000D03*
X119600000Y-130000000D03*
X92550000Y-125550000D03*
X110400000Y-118800000D03*
X129289955Y-109310045D03*
X112000000Y-111500000D03*
X106200000Y-127200000D03*
X105700000Y-117300000D03*
X99125000Y-130925000D03*
X113200000Y-110800000D03*
X125000000Y-134500000D03*
D16*
X141150000Y-143275000D03*
D15*
X113100000Y-112500000D03*
X81200000Y-133800000D03*
X123400000Y-143557100D03*
X113000000Y-124800000D03*
D16*
X141500000Y-122950000D03*
D15*
X118500000Y-125700000D03*
X119000000Y-111000000D03*
X110000000Y-112800000D03*
X124600000Y-127800000D03*
X106500000Y-122500000D03*
%TO.N,+3V3*%
X105300000Y-106900000D03*
X80600000Y-123000000D03*
X119000000Y-138000000D03*
X130500000Y-113700000D03*
X115100000Y-109400000D03*
X119692900Y-132400000D03*
X105000000Y-125500000D03*
X102600000Y-137400000D03*
X111973691Y-132573691D03*
X116000000Y-133000000D03*
X81300000Y-135800000D03*
X123100000Y-127100000D03*
D16*
X91000000Y-131000000D03*
D15*
X116000000Y-140000000D03*
D16*
X87915000Y-143400000D03*
D15*
X109200000Y-124800000D03*
X126200000Y-127700000D03*
X105200000Y-105200000D03*
%TO.N,+1V8*%
X102622545Y-130777455D03*
X89600000Y-126400000D03*
X92200000Y-124000000D03*
X99000000Y-129825000D03*
X108000000Y-134000000D03*
%TO.N,/NRST*%
X118800000Y-117450000D03*
X114800000Y-121800000D03*
%TO.N,/SWO*%
X123100000Y-110000000D03*
%TO.N,/SWDIO*%
X130500000Y-115500000D03*
%TO.N,/SWCLK*%
X126000000Y-110000000D03*
%TO.N,/DHT11_GPIO*%
X120600000Y-125600789D03*
X131300000Y-138900000D03*
%TO.N,/I2C1_SCL*%
X119000000Y-134000000D03*
X117307100Y-135500000D03*
D16*
X96000000Y-141000000D03*
D15*
%TO.N,/I2C1_SDA*%
X89000000Y-137000000D03*
%TO.N,/SPI2_CLK*%
X105000000Y-116600000D03*
X124600000Y-122200000D03*
%TO.N,/SPI2_MOSI*%
X113174900Y-119826100D03*
X105980000Y-115200000D03*
%TO.N,/SPI2_MISO*%
X103200000Y-113800000D03*
X115093505Y-118386405D03*
%TO.N,/SPI2_CS*%
X110600000Y-109000000D03*
X117970237Y-118694075D03*
X95400000Y-113900000D03*
%TO.N,/SPI2_IRQ*%
X78900000Y-121100000D03*
X100000000Y-124000000D03*
%TD*%
%TA.AperFunction,Conductor*%
%TO.N,+3V3*%
G36*
X144742539Y-101820185D02*
G01*
X144788294Y-101872989D01*
X144799500Y-101924500D01*
X144799500Y-144175500D01*
X144779815Y-144242539D01*
X144727011Y-144288294D01*
X144675500Y-144299500D01*
X141726456Y-144299500D01*
X141659417Y-144279815D01*
X141613662Y-144227011D01*
X141603718Y-144157853D01*
X141632743Y-144094297D01*
X141657565Y-144072398D01*
X141707703Y-144038895D01*
X141752402Y-144009029D01*
X141884029Y-143877402D01*
X141987448Y-143722625D01*
X142058684Y-143550646D01*
X142095000Y-143368074D01*
X142095000Y-143181926D01*
X142095000Y-143181923D01*
X142094999Y-143181921D01*
X142058685Y-142999361D01*
X142058684Y-142999354D01*
X141987448Y-142827375D01*
X141987447Y-142827374D01*
X141987444Y-142827368D01*
X141884029Y-142672598D01*
X141884026Y-142672594D01*
X141752405Y-142540973D01*
X141752401Y-142540970D01*
X141597631Y-142437555D01*
X141597622Y-142437550D01*
X141425646Y-142366316D01*
X141425638Y-142366314D01*
X141243077Y-142330000D01*
X141243074Y-142330000D01*
X141056926Y-142330000D01*
X141056923Y-142330000D01*
X140874361Y-142366314D01*
X140874353Y-142366316D01*
X140702377Y-142437550D01*
X140702368Y-142437555D01*
X140547598Y-142540970D01*
X140547594Y-142540973D01*
X140415973Y-142672594D01*
X140415970Y-142672598D01*
X140312555Y-142827368D01*
X140312550Y-142827377D01*
X140241316Y-142999353D01*
X140241314Y-142999361D01*
X140205000Y-143181921D01*
X140205000Y-143368078D01*
X140241314Y-143550638D01*
X140241316Y-143550646D01*
X140312550Y-143722622D01*
X140312555Y-143722631D01*
X140415970Y-143877401D01*
X140415973Y-143877405D01*
X140547594Y-144009026D01*
X140547598Y-144009029D01*
X140642435Y-144072398D01*
X140687240Y-144126010D01*
X140695947Y-144195336D01*
X140665792Y-144258363D01*
X140606349Y-144295082D01*
X140573544Y-144299500D01*
X127749243Y-144299500D01*
X127682204Y-144279815D01*
X127636449Y-144227011D01*
X127626505Y-144157853D01*
X127652001Y-144099983D01*
X127651728Y-144099801D01*
X127652767Y-144098245D01*
X127653388Y-144096837D01*
X127655108Y-144094739D01*
X127655112Y-144094736D01*
X127747412Y-143956600D01*
X127810989Y-143803111D01*
X127843400Y-143640168D01*
X127843400Y-143474032D01*
X127810989Y-143311089D01*
X127810987Y-143311084D01*
X127747415Y-143157606D01*
X127747408Y-143157593D01*
X127655112Y-143019464D01*
X127655109Y-143019460D01*
X127537639Y-142901990D01*
X127537635Y-142901987D01*
X127399506Y-142809691D01*
X127399493Y-142809684D01*
X127246015Y-142746112D01*
X127246003Y-142746109D01*
X127083072Y-142713700D01*
X127083068Y-142713700D01*
X126916932Y-142713700D01*
X126916927Y-142713700D01*
X126753996Y-142746109D01*
X126753984Y-142746112D01*
X126600506Y-142809684D01*
X126600493Y-142809691D01*
X126462364Y-142901987D01*
X126462360Y-142901990D01*
X126344890Y-143019460D01*
X126344887Y-143019464D01*
X126252591Y-143157593D01*
X126252584Y-143157606D01*
X126189012Y-143311084D01*
X126189009Y-143311096D01*
X126156600Y-143474027D01*
X126156600Y-143640172D01*
X126189009Y-143803103D01*
X126189012Y-143803115D01*
X126252584Y-143956593D01*
X126252591Y-143956606D01*
X126344886Y-144094734D01*
X126346612Y-144096837D01*
X126347171Y-144098153D01*
X126348272Y-144099801D01*
X126347959Y-144100009D01*
X126373924Y-144161147D01*
X126362131Y-144230014D01*
X126314978Y-144281574D01*
X126250757Y-144299500D01*
X124149243Y-144299500D01*
X124082204Y-144279815D01*
X124036449Y-144227011D01*
X124026505Y-144157853D01*
X124052001Y-144099983D01*
X124051728Y-144099801D01*
X124052767Y-144098245D01*
X124053388Y-144096837D01*
X124055108Y-144094739D01*
X124055112Y-144094736D01*
X124147412Y-143956600D01*
X124210989Y-143803111D01*
X124243400Y-143640168D01*
X124243400Y-143474032D01*
X124210989Y-143311089D01*
X124210987Y-143311084D01*
X124147415Y-143157606D01*
X124147408Y-143157593D01*
X124055112Y-143019464D01*
X124055109Y-143019460D01*
X123937639Y-142901990D01*
X123937635Y-142901987D01*
X123799506Y-142809691D01*
X123799493Y-142809684D01*
X123646015Y-142746112D01*
X123646003Y-142746109D01*
X123483072Y-142713700D01*
X123483068Y-142713700D01*
X123316932Y-142713700D01*
X123316927Y-142713700D01*
X123153996Y-142746109D01*
X123153984Y-142746112D01*
X123000506Y-142809684D01*
X123000493Y-142809691D01*
X122862364Y-142901987D01*
X122862360Y-142901990D01*
X122744890Y-143019460D01*
X122744887Y-143019464D01*
X122652591Y-143157593D01*
X122652584Y-143157606D01*
X122589012Y-143311084D01*
X122589009Y-143311096D01*
X122556600Y-143474027D01*
X122556600Y-143640172D01*
X122589009Y-143803103D01*
X122589012Y-143803115D01*
X122652584Y-143956593D01*
X122652591Y-143956606D01*
X122744886Y-144094734D01*
X122746612Y-144096837D01*
X122747171Y-144098153D01*
X122748272Y-144099801D01*
X122747959Y-144100009D01*
X122773924Y-144161147D01*
X122762131Y-144230014D01*
X122714978Y-144281574D01*
X122650757Y-144299500D01*
X78875893Y-144299500D01*
X78808854Y-144279815D01*
X78763099Y-144227011D01*
X78751895Y-144174777D01*
X78751975Y-144161147D01*
X78768550Y-141316927D01*
X85376600Y-141316927D01*
X85376600Y-141483072D01*
X85409009Y-141646003D01*
X85409012Y-141646015D01*
X85472584Y-141799493D01*
X85472591Y-141799506D01*
X85564887Y-141937635D01*
X85564890Y-141937639D01*
X85682360Y-142055109D01*
X85682364Y-142055112D01*
X85820493Y-142147408D01*
X85820506Y-142147415D01*
X85973984Y-142210987D01*
X85973989Y-142210989D01*
X86136927Y-142243399D01*
X86136931Y-142243400D01*
X86136932Y-142243400D01*
X86303069Y-142243400D01*
X86303070Y-142243399D01*
X86466011Y-142210989D01*
X86619500Y-142147412D01*
X86757636Y-142055112D01*
X86875112Y-141937636D01*
X86967412Y-141799500D01*
X87030989Y-141646011D01*
X87063400Y-141483068D01*
X87063400Y-141316932D01*
X87030989Y-141153989D01*
X87005758Y-141093076D01*
X86967415Y-141000506D01*
X86967411Y-141000499D01*
X86946849Y-140969726D01*
X86946848Y-140969724D01*
X86904884Y-140906921D01*
X95055000Y-140906921D01*
X95055000Y-141093078D01*
X95091314Y-141275638D01*
X95091316Y-141275646D01*
X95162550Y-141447622D01*
X95162555Y-141447631D01*
X95265970Y-141602401D01*
X95265973Y-141602405D01*
X95397594Y-141734026D01*
X95397598Y-141734029D01*
X95552368Y-141837444D01*
X95552374Y-141837447D01*
X95552375Y-141837448D01*
X95724354Y-141908684D01*
X95869900Y-141937635D01*
X95906921Y-141944999D01*
X95906924Y-141945000D01*
X95906926Y-141945000D01*
X96093076Y-141945000D01*
X96093077Y-141944999D01*
X96275646Y-141908684D01*
X96447625Y-141837448D01*
X96602402Y-141734029D01*
X96734029Y-141602402D01*
X96837448Y-141447625D01*
X96908684Y-141275646D01*
X96945000Y-141093074D01*
X96945000Y-140906926D01*
X96945000Y-140906923D01*
X96944999Y-140906921D01*
X96908685Y-140724361D01*
X96908684Y-140724354D01*
X96837448Y-140552375D01*
X96837447Y-140552374D01*
X96837444Y-140552368D01*
X96734029Y-140397598D01*
X96734026Y-140397594D01*
X96602405Y-140265973D01*
X96602401Y-140265970D01*
X96447631Y-140162555D01*
X96447622Y-140162550D01*
X96275646Y-140091316D01*
X96275638Y-140091314D01*
X96093077Y-140055000D01*
X96093074Y-140055000D01*
X95906926Y-140055000D01*
X95906923Y-140055000D01*
X95724361Y-140091314D01*
X95724353Y-140091316D01*
X95552377Y-140162550D01*
X95552368Y-140162555D01*
X95397598Y-140265970D01*
X95397594Y-140265973D01*
X95265973Y-140397594D01*
X95265970Y-140397598D01*
X95162555Y-140552368D01*
X95162550Y-140552377D01*
X95091316Y-140724353D01*
X95091314Y-140724361D01*
X95055000Y-140906921D01*
X86904884Y-140906921D01*
X86875112Y-140862364D01*
X86875109Y-140862360D01*
X86757639Y-140744890D01*
X86757635Y-140744887D01*
X86619506Y-140652591D01*
X86619493Y-140652584D01*
X86466015Y-140589012D01*
X86466003Y-140589009D01*
X86303072Y-140556600D01*
X86303068Y-140556600D01*
X86136932Y-140556600D01*
X86136927Y-140556600D01*
X85973996Y-140589009D01*
X85973984Y-140589012D01*
X85820506Y-140652584D01*
X85820493Y-140652591D01*
X85682364Y-140744887D01*
X85682360Y-140744890D01*
X85564890Y-140862360D01*
X85564887Y-140862364D01*
X85472591Y-141000493D01*
X85472584Y-141000506D01*
X85409012Y-141153984D01*
X85409009Y-141153996D01*
X85376600Y-141316927D01*
X78768550Y-141316927D01*
X78774838Y-140237826D01*
X78783118Y-138816927D01*
X130456600Y-138816927D01*
X130456600Y-138983072D01*
X130489009Y-139146003D01*
X130489012Y-139146015D01*
X130552584Y-139299493D01*
X130552591Y-139299506D01*
X130644887Y-139437635D01*
X130644890Y-139437639D01*
X130762360Y-139555109D01*
X130762364Y-139555112D01*
X130900493Y-139647408D01*
X130900506Y-139647415D01*
X131053984Y-139710987D01*
X131053989Y-139710989D01*
X131216927Y-139743399D01*
X131216931Y-139743400D01*
X131216932Y-139743400D01*
X131383069Y-139743400D01*
X131383070Y-139743399D01*
X131546011Y-139710989D01*
X131664721Y-139661817D01*
X131699493Y-139647415D01*
X131699493Y-139647414D01*
X131699500Y-139647412D01*
X131837636Y-139555112D01*
X131955112Y-139437636D01*
X132047412Y-139299500D01*
X132110989Y-139146011D01*
X132143400Y-138983068D01*
X132143400Y-138816932D01*
X132110989Y-138653989D01*
X132073928Y-138564515D01*
X132047415Y-138500506D01*
X132047408Y-138500493D01*
X131955112Y-138362364D01*
X131955109Y-138362360D01*
X131837639Y-138244890D01*
X131837635Y-138244887D01*
X131699506Y-138152591D01*
X131699493Y-138152584D01*
X131546015Y-138089012D01*
X131546003Y-138089009D01*
X131383072Y-138056600D01*
X131383068Y-138056600D01*
X131216932Y-138056600D01*
X131216927Y-138056600D01*
X131053996Y-138089009D01*
X131053984Y-138089012D01*
X130900506Y-138152584D01*
X130900493Y-138152591D01*
X130762364Y-138244887D01*
X130762360Y-138244890D01*
X130644890Y-138362360D01*
X130644887Y-138362364D01*
X130552591Y-138500493D01*
X130552584Y-138500506D01*
X130489012Y-138653984D01*
X130489009Y-138653996D01*
X130456600Y-138816927D01*
X78783118Y-138816927D01*
X78783158Y-138810117D01*
X78793222Y-137083069D01*
X78794190Y-136916927D01*
X88156600Y-136916927D01*
X88156600Y-137083072D01*
X88189009Y-137246003D01*
X88189012Y-137246015D01*
X88252584Y-137399493D01*
X88252591Y-137399506D01*
X88344887Y-137537635D01*
X88344890Y-137537639D01*
X88462360Y-137655109D01*
X88462364Y-137655112D01*
X88600493Y-137747408D01*
X88600506Y-137747415D01*
X88753984Y-137810987D01*
X88753989Y-137810989D01*
X88916927Y-137843399D01*
X88916931Y-137843400D01*
X88916932Y-137843400D01*
X89083069Y-137843400D01*
X89083070Y-137843399D01*
X89246011Y-137810989D01*
X89399500Y-137747412D01*
X89537636Y-137655112D01*
X89655112Y-137537636D01*
X89747412Y-137399500D01*
X89810989Y-137246011D01*
X89843400Y-137083068D01*
X89843400Y-136916932D01*
X89843399Y-136916927D01*
X120756600Y-136916927D01*
X120756600Y-137083072D01*
X120789009Y-137246003D01*
X120789012Y-137246015D01*
X120852584Y-137399493D01*
X120852591Y-137399506D01*
X120944887Y-137537635D01*
X120944890Y-137537639D01*
X121062360Y-137655109D01*
X121062364Y-137655112D01*
X121200493Y-137747408D01*
X121200506Y-137747415D01*
X121353984Y-137810987D01*
X121353989Y-137810989D01*
X121516927Y-137843399D01*
X121516931Y-137843400D01*
X121516932Y-137843400D01*
X121683069Y-137843400D01*
X121683070Y-137843399D01*
X121846011Y-137810989D01*
X121999500Y-137747412D01*
X122137636Y-137655112D01*
X122255112Y-137537636D01*
X122347412Y-137399500D01*
X122410989Y-137246011D01*
X122443400Y-137083068D01*
X122443400Y-136916932D01*
X122410989Y-136753989D01*
X122409169Y-136749594D01*
X122347415Y-136600506D01*
X122347408Y-136600493D01*
X122255112Y-136462364D01*
X122255109Y-136462360D01*
X122137639Y-136344890D01*
X122137635Y-136344887D01*
X121999506Y-136252591D01*
X121999493Y-136252584D01*
X121846015Y-136189012D01*
X121846003Y-136189009D01*
X121683072Y-136156600D01*
X121683068Y-136156600D01*
X121516932Y-136156600D01*
X121516927Y-136156600D01*
X121353996Y-136189009D01*
X121353984Y-136189012D01*
X121200506Y-136252584D01*
X121200493Y-136252591D01*
X121062364Y-136344887D01*
X121062360Y-136344890D01*
X120944890Y-136462360D01*
X120944887Y-136462364D01*
X120852591Y-136600493D01*
X120852584Y-136600506D01*
X120789012Y-136753984D01*
X120789009Y-136753996D01*
X120756600Y-136916927D01*
X89843399Y-136916927D01*
X89810989Y-136753989D01*
X89809169Y-136749594D01*
X89747415Y-136600506D01*
X89747408Y-136600493D01*
X89655112Y-136462364D01*
X89655109Y-136462360D01*
X89537639Y-136344890D01*
X89537635Y-136344887D01*
X89399506Y-136252591D01*
X89399493Y-136252584D01*
X89246015Y-136189012D01*
X89246003Y-136189009D01*
X89083072Y-136156600D01*
X89083068Y-136156600D01*
X88916932Y-136156600D01*
X88916927Y-136156600D01*
X88753996Y-136189009D01*
X88753984Y-136189012D01*
X88600506Y-136252584D01*
X88600493Y-136252591D01*
X88462364Y-136344887D01*
X88462360Y-136344890D01*
X88344890Y-136462360D01*
X88344887Y-136462364D01*
X88252591Y-136600493D01*
X88252584Y-136600506D01*
X88189012Y-136753984D01*
X88189009Y-136753996D01*
X88156600Y-136916927D01*
X78794190Y-136916927D01*
X78802931Y-135416927D01*
X116463700Y-135416927D01*
X116463700Y-135583072D01*
X116496109Y-135746003D01*
X116496112Y-135746015D01*
X116559684Y-135899493D01*
X116559691Y-135899506D01*
X116651987Y-136037635D01*
X116651990Y-136037639D01*
X116769460Y-136155109D01*
X116769464Y-136155112D01*
X116907593Y-136247408D01*
X116907606Y-136247415D01*
X117061084Y-136310987D01*
X117061089Y-136310989D01*
X117184185Y-136335474D01*
X117224027Y-136343399D01*
X117224031Y-136343400D01*
X117224032Y-136343400D01*
X117390169Y-136343400D01*
X117390170Y-136343399D01*
X117553111Y-136310989D01*
X117706600Y-136247412D01*
X117844736Y-136155112D01*
X117962212Y-136037636D01*
X118054512Y-135899500D01*
X118118089Y-135746011D01*
X118150500Y-135583068D01*
X118150500Y-135416932D01*
X118118089Y-135253989D01*
X118077132Y-135155109D01*
X118054515Y-135100506D01*
X118054508Y-135100493D01*
X117962212Y-134962364D01*
X117962209Y-134962360D01*
X117844739Y-134844890D01*
X117844735Y-134844887D01*
X117706606Y-134752591D01*
X117706593Y-134752584D01*
X117553115Y-134689012D01*
X117553103Y-134689009D01*
X117390172Y-134656600D01*
X117390168Y-134656600D01*
X117224032Y-134656600D01*
X117224027Y-134656600D01*
X117061096Y-134689009D01*
X117061084Y-134689012D01*
X116907606Y-134752584D01*
X116907593Y-134752591D01*
X116769464Y-134844887D01*
X116769460Y-134844890D01*
X116651990Y-134962360D01*
X116651987Y-134962364D01*
X116559691Y-135100493D01*
X116559684Y-135100506D01*
X116496112Y-135253984D01*
X116496109Y-135253996D01*
X116463700Y-135416927D01*
X78802931Y-135416927D01*
X78812838Y-133716927D01*
X80356600Y-133716927D01*
X80356600Y-133883072D01*
X80389009Y-134046003D01*
X80389012Y-134046015D01*
X80452584Y-134199493D01*
X80452591Y-134199506D01*
X80544887Y-134337635D01*
X80544890Y-134337639D01*
X80662360Y-134455109D01*
X80662364Y-134455112D01*
X80800493Y-134547408D01*
X80800506Y-134547415D01*
X80886591Y-134583072D01*
X80953989Y-134610989D01*
X81116927Y-134643399D01*
X81116931Y-134643400D01*
X81116932Y-134643400D01*
X81283069Y-134643400D01*
X81283070Y-134643399D01*
X81446011Y-134610989D01*
X81599500Y-134547412D01*
X81737636Y-134455112D01*
X81855112Y-134337636D01*
X81947412Y-134199500D01*
X82010989Y-134046011D01*
X82036665Y-133916927D01*
X107156600Y-133916927D01*
X107156600Y-134083072D01*
X107189009Y-134246003D01*
X107189012Y-134246015D01*
X107252584Y-134399493D01*
X107252591Y-134399506D01*
X107344887Y-134537635D01*
X107344890Y-134537639D01*
X107462360Y-134655109D01*
X107462364Y-134655112D01*
X107600493Y-134747408D01*
X107600506Y-134747415D01*
X107725916Y-134799361D01*
X107753989Y-134810989D01*
X107916927Y-134843399D01*
X107916931Y-134843400D01*
X107916932Y-134843400D01*
X108083069Y-134843400D01*
X108083070Y-134843399D01*
X108246011Y-134810989D01*
X108399500Y-134747412D01*
X108537636Y-134655112D01*
X108655112Y-134537636D01*
X108747412Y-134399500D01*
X108810989Y-134246011D01*
X108843400Y-134083068D01*
X108843400Y-133916932D01*
X108843399Y-133916927D01*
X109156600Y-133916927D01*
X109156600Y-134083072D01*
X109189009Y-134246003D01*
X109189012Y-134246015D01*
X109252584Y-134399493D01*
X109252591Y-134399506D01*
X109344887Y-134537635D01*
X109344890Y-134537639D01*
X109462360Y-134655109D01*
X109462364Y-134655112D01*
X109600493Y-134747408D01*
X109600506Y-134747415D01*
X109725916Y-134799361D01*
X109753989Y-134810989D01*
X109916927Y-134843399D01*
X109916931Y-134843400D01*
X109916932Y-134843400D01*
X110083069Y-134843400D01*
X110083070Y-134843399D01*
X110246011Y-134810989D01*
X110399500Y-134747412D01*
X110537636Y-134655112D01*
X110655112Y-134537636D01*
X110747412Y-134399500D01*
X110810989Y-134246011D01*
X110843400Y-134083068D01*
X110843400Y-133916932D01*
X110843399Y-133916927D01*
X118156600Y-133916927D01*
X118156600Y-134083072D01*
X118189009Y-134246003D01*
X118189012Y-134246015D01*
X118252584Y-134399493D01*
X118252591Y-134399506D01*
X118344887Y-134537635D01*
X118344890Y-134537639D01*
X118462360Y-134655109D01*
X118462364Y-134655112D01*
X118600493Y-134747408D01*
X118600506Y-134747415D01*
X118725916Y-134799361D01*
X118753989Y-134810989D01*
X118916927Y-134843399D01*
X118916931Y-134843400D01*
X118916932Y-134843400D01*
X119083069Y-134843400D01*
X119083070Y-134843399D01*
X119246011Y-134810989D01*
X119399500Y-134747412D01*
X119537636Y-134655112D01*
X119655112Y-134537636D01*
X119735768Y-134416927D01*
X124156600Y-134416927D01*
X124156600Y-134583072D01*
X124189009Y-134746003D01*
X124189012Y-134746015D01*
X124252584Y-134899493D01*
X124252591Y-134899506D01*
X124344887Y-135037635D01*
X124344890Y-135037639D01*
X124462360Y-135155109D01*
X124462364Y-135155112D01*
X124600493Y-135247408D01*
X124600506Y-135247415D01*
X124753984Y-135310987D01*
X124753989Y-135310989D01*
X124916927Y-135343399D01*
X124916931Y-135343400D01*
X124916932Y-135343400D01*
X125083069Y-135343400D01*
X125083070Y-135343399D01*
X125246011Y-135310989D01*
X125399500Y-135247412D01*
X125537636Y-135155112D01*
X125655112Y-135037636D01*
X125692340Y-134981921D01*
X134055000Y-134981921D01*
X134055000Y-135168078D01*
X134091314Y-135350638D01*
X134091316Y-135350646D01*
X134162550Y-135522622D01*
X134162555Y-135522631D01*
X134265970Y-135677401D01*
X134265973Y-135677405D01*
X134397594Y-135809026D01*
X134397598Y-135809029D01*
X134552368Y-135912444D01*
X134552374Y-135912447D01*
X134552375Y-135912448D01*
X134724354Y-135983684D01*
X134906921Y-136019999D01*
X134906924Y-136020000D01*
X134906926Y-136020000D01*
X135093076Y-136020000D01*
X135093077Y-136019999D01*
X135275646Y-135983684D01*
X135447625Y-135912448D01*
X135602402Y-135809029D01*
X135734029Y-135677402D01*
X135837448Y-135522625D01*
X135908684Y-135350646D01*
X135945000Y-135168074D01*
X135945000Y-134981926D01*
X135945000Y-134981923D01*
X135944999Y-134981921D01*
X135930084Y-134906941D01*
X135908684Y-134799354D01*
X135837448Y-134627375D01*
X135837447Y-134627374D01*
X135837444Y-134627368D01*
X135734029Y-134472598D01*
X135734026Y-134472594D01*
X135602405Y-134340973D01*
X135602401Y-134340970D01*
X135447631Y-134237555D01*
X135447622Y-134237550D01*
X135275646Y-134166316D01*
X135275638Y-134166314D01*
X135093077Y-134130000D01*
X135093074Y-134130000D01*
X134906926Y-134130000D01*
X134906923Y-134130000D01*
X134724361Y-134166314D01*
X134724353Y-134166316D01*
X134552377Y-134237550D01*
X134552368Y-134237555D01*
X134397598Y-134340970D01*
X134397594Y-134340973D01*
X134265973Y-134472594D01*
X134265970Y-134472598D01*
X134162555Y-134627368D01*
X134162550Y-134627377D01*
X134091316Y-134799353D01*
X134091314Y-134799361D01*
X134055000Y-134981921D01*
X125692340Y-134981921D01*
X125747412Y-134899500D01*
X125810989Y-134746011D01*
X125843400Y-134583068D01*
X125843400Y-134416932D01*
X125810989Y-134253989D01*
X125807686Y-134246015D01*
X125747415Y-134100506D01*
X125747408Y-134100493D01*
X125655112Y-133962364D01*
X125655109Y-133962360D01*
X125537639Y-133844890D01*
X125537635Y-133844887D01*
X125399506Y-133752591D01*
X125399493Y-133752584D01*
X125246015Y-133689012D01*
X125246003Y-133689009D01*
X125083072Y-133656600D01*
X125083068Y-133656600D01*
X124916932Y-133656600D01*
X124916927Y-133656600D01*
X124753996Y-133689009D01*
X124753984Y-133689012D01*
X124600506Y-133752584D01*
X124600493Y-133752591D01*
X124462364Y-133844887D01*
X124462360Y-133844890D01*
X124344890Y-133962360D01*
X124344887Y-133962364D01*
X124252591Y-134100493D01*
X124252584Y-134100506D01*
X124189012Y-134253984D01*
X124189009Y-134253996D01*
X124156600Y-134416927D01*
X119735768Y-134416927D01*
X119747412Y-134399500D01*
X119755496Y-134379983D01*
X119762371Y-134363387D01*
X119762371Y-134363385D01*
X119810989Y-134246011D01*
X119843400Y-134083068D01*
X119843400Y-133916932D01*
X119810989Y-133753989D01*
X119807053Y-133744487D01*
X119747415Y-133600506D01*
X119747408Y-133600493D01*
X119655112Y-133462364D01*
X119655109Y-133462360D01*
X119537639Y-133344890D01*
X119537635Y-133344887D01*
X119399506Y-133252591D01*
X119399493Y-133252584D01*
X119246015Y-133189012D01*
X119246003Y-133189009D01*
X119083072Y-133156600D01*
X119083068Y-133156600D01*
X118916932Y-133156600D01*
X118916927Y-133156600D01*
X118753996Y-133189009D01*
X118753984Y-133189012D01*
X118600506Y-133252584D01*
X118600493Y-133252591D01*
X118462364Y-133344887D01*
X118462360Y-133344890D01*
X118344890Y-133462360D01*
X118344887Y-133462364D01*
X118252591Y-133600493D01*
X118252584Y-133600506D01*
X118189012Y-133753984D01*
X118189009Y-133753996D01*
X118156600Y-133916927D01*
X110843399Y-133916927D01*
X110810989Y-133753989D01*
X110807053Y-133744487D01*
X110747415Y-133600506D01*
X110747408Y-133600493D01*
X110655112Y-133462364D01*
X110655109Y-133462360D01*
X110537639Y-133344890D01*
X110537635Y-133344887D01*
X110399506Y-133252591D01*
X110399493Y-133252584D01*
X110246015Y-133189012D01*
X110246003Y-133189009D01*
X110083072Y-133156600D01*
X110083068Y-133156600D01*
X109916932Y-133156600D01*
X109916927Y-133156600D01*
X109753996Y-133189009D01*
X109753984Y-133189012D01*
X109600506Y-133252584D01*
X109600493Y-133252591D01*
X109462364Y-133344887D01*
X109462360Y-133344890D01*
X109344890Y-133462360D01*
X109344887Y-133462364D01*
X109252591Y-133600493D01*
X109252584Y-133600506D01*
X109189012Y-133753984D01*
X109189009Y-133753996D01*
X109156600Y-133916927D01*
X108843399Y-133916927D01*
X108810989Y-133753989D01*
X108807053Y-133744487D01*
X108747415Y-133600506D01*
X108747408Y-133600493D01*
X108655112Y-133462364D01*
X108655109Y-133462360D01*
X108537639Y-133344890D01*
X108537635Y-133344887D01*
X108399506Y-133252591D01*
X108399493Y-133252584D01*
X108246015Y-133189012D01*
X108246003Y-133189009D01*
X108083072Y-133156600D01*
X108083068Y-133156600D01*
X107916932Y-133156600D01*
X107916927Y-133156600D01*
X107753996Y-133189009D01*
X107753984Y-133189012D01*
X107600506Y-133252584D01*
X107600493Y-133252591D01*
X107462364Y-133344887D01*
X107462360Y-133344890D01*
X107344890Y-133462360D01*
X107344887Y-133462364D01*
X107252591Y-133600493D01*
X107252584Y-133600506D01*
X107189012Y-133753984D01*
X107189009Y-133753996D01*
X107156600Y-133916927D01*
X82036665Y-133916927D01*
X82043400Y-133883068D01*
X82043400Y-133716932D01*
X82010989Y-133553989D01*
X81996412Y-133518796D01*
X81947415Y-133400506D01*
X81947408Y-133400493D01*
X81855112Y-133262364D01*
X81855109Y-133262360D01*
X81737639Y-133144890D01*
X81737635Y-133144887D01*
X81599506Y-133052591D01*
X81599493Y-133052584D01*
X81446015Y-132989012D01*
X81446003Y-132989009D01*
X81283072Y-132956600D01*
X81283068Y-132956600D01*
X81116932Y-132956600D01*
X81116927Y-132956600D01*
X80953996Y-132989009D01*
X80953984Y-132989012D01*
X80800506Y-133052584D01*
X80800493Y-133052591D01*
X80662364Y-133144887D01*
X80662360Y-133144890D01*
X80544890Y-133262360D01*
X80544887Y-133262364D01*
X80452591Y-133400493D01*
X80452584Y-133400506D01*
X80389012Y-133553984D01*
X80389009Y-133553996D01*
X80356600Y-133716927D01*
X78812838Y-133716927D01*
X78836003Y-129741927D01*
X98156600Y-129741927D01*
X98156600Y-129908072D01*
X98189009Y-130071003D01*
X98189012Y-130071015D01*
X98252584Y-130224493D01*
X98252591Y-130224506D01*
X98344887Y-130362635D01*
X98344890Y-130362639D01*
X98357898Y-130375647D01*
X98391383Y-130436970D01*
X98386399Y-130506662D01*
X98379576Y-130521779D01*
X98377588Y-130525498D01*
X98314012Y-130678984D01*
X98314009Y-130678996D01*
X98281600Y-130841927D01*
X98281600Y-131008072D01*
X98314009Y-131171003D01*
X98314012Y-131171015D01*
X98377584Y-131324493D01*
X98377591Y-131324506D01*
X98469887Y-131462635D01*
X98469890Y-131462639D01*
X98587360Y-131580109D01*
X98587364Y-131580112D01*
X98725493Y-131672408D01*
X98725506Y-131672415D01*
X98827025Y-131714465D01*
X98878989Y-131735989D01*
X99041927Y-131768399D01*
X99041931Y-131768400D01*
X99041932Y-131768400D01*
X99208069Y-131768400D01*
X99208070Y-131768399D01*
X99371011Y-131735989D01*
X99524500Y-131672412D01*
X99662636Y-131580112D01*
X99780112Y-131462636D01*
X99872412Y-131324500D01*
X99883117Y-131298657D01*
X99916752Y-131217454D01*
X99935989Y-131171011D01*
X99968400Y-131008068D01*
X99968400Y-130841932D01*
X99939051Y-130694382D01*
X101779145Y-130694382D01*
X101779145Y-130860527D01*
X101811554Y-131023458D01*
X101811557Y-131023470D01*
X101875129Y-131176948D01*
X101875136Y-131176961D01*
X101967432Y-131315090D01*
X101967435Y-131315094D01*
X102084905Y-131432564D01*
X102084909Y-131432567D01*
X102223038Y-131524863D01*
X102223042Y-131524865D01*
X102223045Y-131524867D01*
X102237883Y-131531013D01*
X102292288Y-131574853D01*
X102314354Y-131641146D01*
X102297076Y-131708846D01*
X102293535Y-131714465D01*
X102215976Y-131830540D01*
X102215966Y-131830558D01*
X102152394Y-131984036D01*
X102152391Y-131984048D01*
X102119982Y-132146979D01*
X102119982Y-132313124D01*
X102152391Y-132476055D01*
X102152394Y-132476067D01*
X102215966Y-132629545D01*
X102215973Y-132629558D01*
X102308269Y-132767687D01*
X102308272Y-132767691D01*
X102425742Y-132885161D01*
X102425746Y-132885164D01*
X102563875Y-132977460D01*
X102563888Y-132977467D01*
X102644821Y-133010990D01*
X102717371Y-133041041D01*
X102880309Y-133073451D01*
X102880313Y-133073452D01*
X102880314Y-133073452D01*
X103046451Y-133073452D01*
X103046452Y-133073451D01*
X103209393Y-133041041D01*
X103362882Y-132977464D01*
X103501018Y-132885164D01*
X103618494Y-132767688D01*
X103710794Y-132629552D01*
X103774371Y-132476063D01*
X103806782Y-132313120D01*
X103806782Y-132146984D01*
X103800804Y-132116932D01*
X103800803Y-132116927D01*
X105156600Y-132116927D01*
X105156600Y-132283072D01*
X105189009Y-132446003D01*
X105189012Y-132446015D01*
X105252584Y-132599493D01*
X105252591Y-132599506D01*
X105344887Y-132737635D01*
X105344890Y-132737639D01*
X105462360Y-132855109D01*
X105462364Y-132855112D01*
X105600493Y-132947408D01*
X105600506Y-132947415D01*
X105753984Y-133010987D01*
X105753989Y-133010989D01*
X105916927Y-133043399D01*
X105916931Y-133043400D01*
X105916932Y-133043400D01*
X106083069Y-133043400D01*
X106083070Y-133043399D01*
X106246011Y-133010989D01*
X106399500Y-132947412D01*
X106537636Y-132855112D01*
X106655112Y-132737636D01*
X106747412Y-132599500D01*
X106810989Y-132446011D01*
X106843400Y-132283068D01*
X106843400Y-132116932D01*
X106810989Y-131953989D01*
X106810987Y-131953984D01*
X106747415Y-131800506D01*
X106747408Y-131800493D01*
X106655112Y-131662364D01*
X106655109Y-131662360D01*
X106537639Y-131544890D01*
X106537635Y-131544887D01*
X106511068Y-131527135D01*
X139899500Y-131527135D01*
X139899500Y-133122870D01*
X139899501Y-133122876D01*
X139905908Y-133182483D01*
X139956202Y-133317328D01*
X139956206Y-133317335D01*
X140042452Y-133432544D01*
X140042455Y-133432547D01*
X140157664Y-133518793D01*
X140157671Y-133518797D01*
X140292517Y-133569091D01*
X140292516Y-133569091D01*
X140299444Y-133569835D01*
X140352127Y-133575500D01*
X140415733Y-133575499D01*
X140482770Y-133595183D01*
X140528526Y-133647986D01*
X140538470Y-133717144D01*
X140509446Y-133780700D01*
X140488619Y-133799816D01*
X140335354Y-133911171D01*
X140196174Y-134050351D01*
X140196174Y-134050352D01*
X140196172Y-134050354D01*
X140172404Y-134083068D01*
X140080476Y-134209594D01*
X139991117Y-134384970D01*
X139930290Y-134572173D01*
X139899500Y-134766577D01*
X139899500Y-134963422D01*
X139930290Y-135157826D01*
X139991117Y-135345029D01*
X140027754Y-135416932D01*
X140080476Y-135520405D01*
X140196172Y-135679646D01*
X140335354Y-135818828D01*
X140494595Y-135934524D01*
X140591076Y-135983683D01*
X140671213Y-136024515D01*
X140722009Y-136072489D01*
X140738804Y-136140310D01*
X140716267Y-136206445D01*
X140671213Y-136245485D01*
X140494594Y-136335476D01*
X140403741Y-136401485D01*
X140335354Y-136451172D01*
X140335352Y-136451174D01*
X140335351Y-136451174D01*
X140196174Y-136590351D01*
X140196174Y-136590352D01*
X140196172Y-136590354D01*
X140146485Y-136658741D01*
X140080476Y-136749594D01*
X139991117Y-136924970D01*
X139930290Y-137112173D01*
X139899500Y-137306577D01*
X139899500Y-137503422D01*
X139930290Y-137697826D01*
X139991117Y-137885029D01*
X140078537Y-138056600D01*
X140080476Y-138060405D01*
X140196172Y-138219646D01*
X140335354Y-138358828D01*
X140494595Y-138474524D01*
X140545588Y-138500506D01*
X140671213Y-138564515D01*
X140722009Y-138612489D01*
X140738804Y-138680310D01*
X140716267Y-138746445D01*
X140671213Y-138785485D01*
X140494594Y-138875476D01*
X140403741Y-138941485D01*
X140335354Y-138991172D01*
X140335352Y-138991174D01*
X140335351Y-138991174D01*
X140196174Y-139130351D01*
X140196174Y-139130352D01*
X140196172Y-139130354D01*
X140184794Y-139146015D01*
X140080476Y-139289594D01*
X139991117Y-139464970D01*
X139930290Y-139652173D01*
X139899500Y-139846577D01*
X139899500Y-140043422D01*
X139930290Y-140237826D01*
X139991117Y-140425029D01*
X140074671Y-140589012D01*
X140080476Y-140600405D01*
X140196172Y-140759646D01*
X140335354Y-140898828D01*
X140494595Y-141014524D01*
X140577455Y-141056743D01*
X140669970Y-141103882D01*
X140669972Y-141103882D01*
X140669975Y-141103884D01*
X140770317Y-141136487D01*
X140857173Y-141164709D01*
X141051578Y-141195500D01*
X141051583Y-141195500D01*
X141248422Y-141195500D01*
X141442826Y-141164709D01*
X141475797Y-141153996D01*
X141630025Y-141103884D01*
X141805405Y-141014524D01*
X141964646Y-140898828D01*
X142103828Y-140759646D01*
X142219524Y-140600405D01*
X142308884Y-140425025D01*
X142369709Y-140237826D01*
X142381631Y-140162552D01*
X142400500Y-140043422D01*
X142400500Y-139846577D01*
X142369709Y-139652173D01*
X142308882Y-139464970D01*
X142261743Y-139372455D01*
X142219524Y-139289595D01*
X142103828Y-139130354D01*
X141964646Y-138991172D01*
X141885025Y-138933324D01*
X141805403Y-138875474D01*
X141628787Y-138785485D01*
X141577990Y-138737511D01*
X141561195Y-138669690D01*
X141583732Y-138603555D01*
X141628787Y-138564515D01*
X141805403Y-138474525D01*
X141805402Y-138474525D01*
X141805405Y-138474524D01*
X141964646Y-138358828D01*
X142103828Y-138219646D01*
X142219524Y-138060405D01*
X142308884Y-137885025D01*
X142369709Y-137697826D01*
X142395080Y-137537639D01*
X142400500Y-137503422D01*
X142400500Y-137306577D01*
X142369709Y-137112173D01*
X142308882Y-136924970D01*
X142221766Y-136753996D01*
X142219524Y-136749595D01*
X142103828Y-136590354D01*
X141964646Y-136451172D01*
X141885025Y-136393324D01*
X141805403Y-136335474D01*
X141628787Y-136245485D01*
X141577990Y-136197511D01*
X141561195Y-136129690D01*
X141583732Y-136063555D01*
X141628787Y-136024515D01*
X141805403Y-135934525D01*
X141805402Y-135934525D01*
X141805405Y-135934524D01*
X141964646Y-135818828D01*
X142103828Y-135679646D01*
X142219524Y-135520405D01*
X142308884Y-135345025D01*
X142369709Y-135157826D01*
X142370139Y-135155109D01*
X142400500Y-134963422D01*
X142400500Y-134766577D01*
X142369709Y-134572173D01*
X142331672Y-134455109D01*
X142308884Y-134384975D01*
X142308882Y-134384972D01*
X142308882Y-134384970D01*
X142242147Y-134253996D01*
X142219524Y-134209595D01*
X142103828Y-134050354D01*
X141964646Y-133911172D01*
X141811377Y-133799815D01*
X141768714Y-133744487D01*
X141762735Y-133674873D01*
X141795341Y-133613078D01*
X141856180Y-133578721D01*
X141884264Y-133575499D01*
X141947872Y-133575499D01*
X142007483Y-133569091D01*
X142142331Y-133518796D01*
X142257546Y-133432546D01*
X142343796Y-133317331D01*
X142394091Y-133182483D01*
X142400500Y-133122873D01*
X142400499Y-131527128D01*
X142394091Y-131467517D01*
X142392270Y-131462635D01*
X142343797Y-131332671D01*
X142343793Y-131332664D01*
X142257547Y-131217455D01*
X142257544Y-131217452D01*
X142142335Y-131131206D01*
X142142328Y-131131202D01*
X142007482Y-131080908D01*
X142007483Y-131080908D01*
X141947883Y-131074501D01*
X141947881Y-131074500D01*
X141947873Y-131074500D01*
X141947864Y-131074500D01*
X140352129Y-131074500D01*
X140352123Y-131074501D01*
X140292516Y-131080908D01*
X140157671Y-131131202D01*
X140157664Y-131131206D01*
X140042455Y-131217452D01*
X140042452Y-131217455D01*
X139956206Y-131332664D01*
X139956202Y-131332671D01*
X139905908Y-131467517D01*
X139899743Y-131524863D01*
X139899501Y-131527123D01*
X139899500Y-131527135D01*
X106511068Y-131527135D01*
X106399506Y-131452591D01*
X106399493Y-131452584D01*
X106246015Y-131389012D01*
X106246003Y-131389009D01*
X106083072Y-131356600D01*
X106083068Y-131356600D01*
X105916932Y-131356600D01*
X105916927Y-131356600D01*
X105753996Y-131389009D01*
X105753984Y-131389012D01*
X105600506Y-131452584D01*
X105600493Y-131452591D01*
X105462364Y-131544887D01*
X105462360Y-131544890D01*
X105344890Y-131662360D01*
X105344887Y-131662364D01*
X105252591Y-131800493D01*
X105252584Y-131800506D01*
X105189012Y-131953984D01*
X105189009Y-131953996D01*
X105156600Y-132116927D01*
X103800803Y-132116927D01*
X103774372Y-131984048D01*
X103774371Y-131984041D01*
X103761921Y-131953984D01*
X103710797Y-131830558D01*
X103710790Y-131830545D01*
X103618494Y-131692416D01*
X103618491Y-131692412D01*
X103501021Y-131574942D01*
X103501017Y-131574939D01*
X103362888Y-131482643D01*
X103362878Y-131482638D01*
X103348040Y-131476492D01*
X103293637Y-131432651D01*
X103271572Y-131366357D01*
X103288851Y-131298657D01*
X103292391Y-131293040D01*
X103369957Y-131176955D01*
X103372418Y-131171015D01*
X103409741Y-131080908D01*
X103433534Y-131023466D01*
X103465945Y-130860523D01*
X103465945Y-130694387D01*
X103433534Y-130531444D01*
X103378884Y-130399506D01*
X103369960Y-130377961D01*
X103369953Y-130377948D01*
X103277657Y-130239819D01*
X103277654Y-130239815D01*
X103160184Y-130122345D01*
X103160180Y-130122342D01*
X103022051Y-130030046D01*
X103022041Y-130030041D01*
X103010839Y-130025401D01*
X103010837Y-130025400D01*
X102868560Y-129966467D01*
X102868548Y-129966464D01*
X102705617Y-129934055D01*
X102705613Y-129934055D01*
X102539477Y-129934055D01*
X102539472Y-129934055D01*
X102376541Y-129966464D01*
X102376529Y-129966467D01*
X102223051Y-130030039D01*
X102223038Y-130030046D01*
X102084909Y-130122342D01*
X102084905Y-130122345D01*
X101967435Y-130239815D01*
X101967432Y-130239819D01*
X101875136Y-130377948D01*
X101875129Y-130377961D01*
X101811557Y-130531439D01*
X101811554Y-130531451D01*
X101779145Y-130694382D01*
X99939051Y-130694382D01*
X99935989Y-130678989D01*
X99926098Y-130655109D01*
X99872415Y-130525506D01*
X99872408Y-130525493D01*
X99780112Y-130387364D01*
X99780109Y-130387360D01*
X99767101Y-130374352D01*
X99733616Y-130313029D01*
X99738600Y-130243337D01*
X99745430Y-130228206D01*
X99747405Y-130224510D01*
X99747412Y-130224500D01*
X99810989Y-130071011D01*
X99841638Y-129916927D01*
X118756600Y-129916927D01*
X118756600Y-130083072D01*
X118789009Y-130246003D01*
X118789012Y-130246015D01*
X118852584Y-130399493D01*
X118852591Y-130399506D01*
X118944887Y-130537635D01*
X118944890Y-130537639D01*
X119062360Y-130655109D01*
X119062364Y-130655112D01*
X119200493Y-130747408D01*
X119200506Y-130747415D01*
X119353984Y-130810987D01*
X119353989Y-130810989D01*
X119509527Y-130841927D01*
X119516927Y-130843399D01*
X119516931Y-130843400D01*
X119516932Y-130843400D01*
X119683069Y-130843400D01*
X119683070Y-130843399D01*
X119846011Y-130810989D01*
X119999500Y-130747412D01*
X120137636Y-130655112D01*
X120255112Y-130537636D01*
X120347412Y-130399500D01*
X120410989Y-130246011D01*
X120443400Y-130083068D01*
X120443400Y-129916932D01*
X120410989Y-129753989D01*
X120405995Y-129741932D01*
X120347415Y-129600506D01*
X120347408Y-129600493D01*
X120255112Y-129462364D01*
X120255109Y-129462360D01*
X120137639Y-129344890D01*
X120137635Y-129344887D01*
X119999506Y-129252591D01*
X119999493Y-129252584D01*
X119846015Y-129189012D01*
X119846003Y-129189009D01*
X119683072Y-129156600D01*
X119683068Y-129156600D01*
X119516932Y-129156600D01*
X119516927Y-129156600D01*
X119353996Y-129189009D01*
X119353984Y-129189012D01*
X119200506Y-129252584D01*
X119200493Y-129252591D01*
X119062364Y-129344887D01*
X119062360Y-129344890D01*
X118944890Y-129462360D01*
X118944887Y-129462364D01*
X118852591Y-129600493D01*
X118852584Y-129600506D01*
X118789012Y-129753984D01*
X118789009Y-129753996D01*
X118756600Y-129916927D01*
X99841638Y-129916927D01*
X99843400Y-129908068D01*
X99843400Y-129741932D01*
X99810989Y-129578989D01*
X99762680Y-129462360D01*
X99747415Y-129425506D01*
X99747408Y-129425493D01*
X99655112Y-129287364D01*
X99655109Y-129287360D01*
X99537639Y-129169890D01*
X99537635Y-129169887D01*
X99399506Y-129077591D01*
X99399493Y-129077584D01*
X99246015Y-129014012D01*
X99246003Y-129014009D01*
X99083072Y-128981600D01*
X99083068Y-128981600D01*
X98916932Y-128981600D01*
X98916927Y-128981600D01*
X98753996Y-129014009D01*
X98753984Y-129014012D01*
X98600506Y-129077584D01*
X98600493Y-129077591D01*
X98462364Y-129169887D01*
X98462360Y-129169890D01*
X98344890Y-129287360D01*
X98344887Y-129287364D01*
X98252591Y-129425493D01*
X98252584Y-129425506D01*
X98189012Y-129578984D01*
X98189009Y-129578996D01*
X98156600Y-129741927D01*
X78836003Y-129741927D01*
X78849552Y-127416927D01*
X91756600Y-127416927D01*
X91756600Y-127583072D01*
X91789009Y-127746003D01*
X91789012Y-127746015D01*
X91852584Y-127899493D01*
X91852591Y-127899506D01*
X91944887Y-128037635D01*
X91944890Y-128037639D01*
X92062360Y-128155109D01*
X92062364Y-128155112D01*
X92200493Y-128247408D01*
X92200506Y-128247415D01*
X92353984Y-128310987D01*
X92353989Y-128310989D01*
X92516927Y-128343399D01*
X92516931Y-128343400D01*
X92516932Y-128343400D01*
X92683069Y-128343400D01*
X92683070Y-128343399D01*
X92846011Y-128310989D01*
X92999500Y-128247412D01*
X93137636Y-128155112D01*
X93255112Y-128037636D01*
X93347412Y-127899500D01*
X93410989Y-127746011D01*
X93443400Y-127583068D01*
X93443400Y-127416932D01*
X93410989Y-127253989D01*
X93406603Y-127243400D01*
X93371351Y-127158292D01*
X93354216Y-127116927D01*
X105356600Y-127116927D01*
X105356600Y-127283072D01*
X105389009Y-127446003D01*
X105389012Y-127446015D01*
X105452584Y-127599493D01*
X105452591Y-127599506D01*
X105544887Y-127737635D01*
X105544890Y-127737639D01*
X105662360Y-127855109D01*
X105662364Y-127855112D01*
X105800493Y-127947408D01*
X105800506Y-127947415D01*
X105953984Y-128010987D01*
X105953989Y-128010989D01*
X106116927Y-128043399D01*
X106116931Y-128043400D01*
X106116932Y-128043400D01*
X106283069Y-128043400D01*
X106283070Y-128043399D01*
X106446011Y-128010989D01*
X106599500Y-127947412D01*
X106737636Y-127855112D01*
X106855112Y-127737636D01*
X106868949Y-127716927D01*
X123756600Y-127716927D01*
X123756600Y-127883072D01*
X123789009Y-128046003D01*
X123789012Y-128046015D01*
X123852584Y-128199493D01*
X123852591Y-128199506D01*
X123944887Y-128337635D01*
X123944890Y-128337639D01*
X124062360Y-128455109D01*
X124062364Y-128455112D01*
X124200493Y-128547408D01*
X124200506Y-128547415D01*
X124353984Y-128610987D01*
X124353989Y-128610989D01*
X124516927Y-128643399D01*
X124516931Y-128643400D01*
X124516932Y-128643400D01*
X124683069Y-128643400D01*
X124683070Y-128643399D01*
X124846011Y-128610989D01*
X124999500Y-128547412D01*
X125137636Y-128455112D01*
X125255112Y-128337636D01*
X125347412Y-128199500D01*
X125410989Y-128046011D01*
X125443400Y-127883068D01*
X125443400Y-127716932D01*
X125410989Y-127553989D01*
X125366265Y-127446015D01*
X125347415Y-127400506D01*
X125347408Y-127400493D01*
X125255112Y-127262364D01*
X125255109Y-127262360D01*
X125137639Y-127144890D01*
X125137635Y-127144887D01*
X124999506Y-127052591D01*
X124999493Y-127052584D01*
X124846015Y-126989012D01*
X124846003Y-126989009D01*
X124683072Y-126956600D01*
X124683068Y-126956600D01*
X124516932Y-126956600D01*
X124516927Y-126956600D01*
X124353996Y-126989009D01*
X124353984Y-126989012D01*
X124200506Y-127052584D01*
X124200493Y-127052591D01*
X124062364Y-127144887D01*
X124062360Y-127144890D01*
X123944890Y-127262360D01*
X123944887Y-127262364D01*
X123852591Y-127400493D01*
X123852584Y-127400506D01*
X123789012Y-127553984D01*
X123789009Y-127553996D01*
X123756600Y-127716927D01*
X106868949Y-127716927D01*
X106887249Y-127689539D01*
X106919049Y-127641949D01*
X106947408Y-127599506D01*
X106947408Y-127599505D01*
X106947412Y-127599500D01*
X107010989Y-127446011D01*
X107043400Y-127283068D01*
X107043400Y-127116932D01*
X107010989Y-126953989D01*
X107004217Y-126937639D01*
X106947415Y-126800506D01*
X106947408Y-126800493D01*
X106855112Y-126662364D01*
X106855109Y-126662360D01*
X106737639Y-126544890D01*
X106737635Y-126544887D01*
X106599506Y-126452591D01*
X106599493Y-126452584D01*
X106446015Y-126389012D01*
X106446003Y-126389009D01*
X106283072Y-126356600D01*
X106283068Y-126356600D01*
X106116932Y-126356600D01*
X106116927Y-126356600D01*
X105953996Y-126389009D01*
X105953984Y-126389012D01*
X105800506Y-126452584D01*
X105800493Y-126452591D01*
X105662364Y-126544887D01*
X105662360Y-126544890D01*
X105544890Y-126662360D01*
X105544887Y-126662364D01*
X105452591Y-126800493D01*
X105452584Y-126800506D01*
X105389012Y-126953984D01*
X105389009Y-126953996D01*
X105356600Y-127116927D01*
X93354216Y-127116927D01*
X93347413Y-127100503D01*
X93347412Y-127100500D01*
X93347410Y-127100497D01*
X93347408Y-127100493D01*
X93255112Y-126962364D01*
X93255109Y-126962360D01*
X93137639Y-126844890D01*
X93137635Y-126844887D01*
X92999506Y-126752591D01*
X92999493Y-126752584D01*
X92846015Y-126689012D01*
X92846003Y-126689009D01*
X92683072Y-126656600D01*
X92683068Y-126656600D01*
X92516932Y-126656600D01*
X92516927Y-126656600D01*
X92353996Y-126689009D01*
X92353984Y-126689012D01*
X92200506Y-126752584D01*
X92200493Y-126752591D01*
X92062364Y-126844887D01*
X92062360Y-126844890D01*
X91944890Y-126962360D01*
X91944887Y-126962364D01*
X91852591Y-127100493D01*
X91852584Y-127100506D01*
X91789012Y-127253984D01*
X91789009Y-127253996D01*
X91756600Y-127416927D01*
X78849552Y-127416927D01*
X78855962Y-126316927D01*
X88756600Y-126316927D01*
X88756600Y-126483072D01*
X88789009Y-126646003D01*
X88789012Y-126646015D01*
X88852584Y-126799493D01*
X88852591Y-126799506D01*
X88944887Y-126937635D01*
X88944890Y-126937639D01*
X89062360Y-127055109D01*
X89062364Y-127055112D01*
X89200493Y-127147408D01*
X89200506Y-127147415D01*
X89353984Y-127210987D01*
X89353989Y-127210989D01*
X89516927Y-127243399D01*
X89516931Y-127243400D01*
X89516932Y-127243400D01*
X89683069Y-127243400D01*
X89683070Y-127243399D01*
X89846011Y-127210989D01*
X89999500Y-127147412D01*
X90137636Y-127055112D01*
X90255112Y-126937636D01*
X90347412Y-126799500D01*
X90410989Y-126646011D01*
X90443400Y-126483068D01*
X90443400Y-126316932D01*
X90410989Y-126153989D01*
X90410987Y-126153984D01*
X90347415Y-126000506D01*
X90347408Y-126000493D01*
X90255112Y-125862364D01*
X90255109Y-125862360D01*
X90137639Y-125744890D01*
X90137635Y-125744887D01*
X89999506Y-125652591D01*
X89999493Y-125652584D01*
X89846015Y-125589012D01*
X89846003Y-125589009D01*
X89683072Y-125556600D01*
X89683068Y-125556600D01*
X89516932Y-125556600D01*
X89516927Y-125556600D01*
X89353996Y-125589009D01*
X89353984Y-125589012D01*
X89200506Y-125652584D01*
X89200493Y-125652591D01*
X89062364Y-125744887D01*
X89062360Y-125744890D01*
X88944890Y-125862360D01*
X88944887Y-125862364D01*
X88852591Y-126000493D01*
X88852584Y-126000506D01*
X88789012Y-126153984D01*
X88789009Y-126153996D01*
X88756600Y-126316927D01*
X78855962Y-126316927D01*
X78869948Y-123916927D01*
X91356600Y-123916927D01*
X91356600Y-124083072D01*
X91389009Y-124246003D01*
X91389012Y-124246015D01*
X91452584Y-124399493D01*
X91452591Y-124399506D01*
X91544887Y-124537635D01*
X91544890Y-124537639D01*
X91662360Y-124655109D01*
X91662364Y-124655112D01*
X91800493Y-124747408D01*
X91800502Y-124747413D01*
X91883138Y-124781642D01*
X91937541Y-124825483D01*
X91959606Y-124891777D01*
X91942327Y-124959477D01*
X91923368Y-124983883D01*
X91894887Y-125012364D01*
X91802591Y-125150493D01*
X91802584Y-125150506D01*
X91739012Y-125303984D01*
X91739009Y-125303996D01*
X91706600Y-125466927D01*
X91706600Y-125633072D01*
X91739009Y-125796003D01*
X91739012Y-125796015D01*
X91802584Y-125949493D01*
X91802591Y-125949506D01*
X91894887Y-126087635D01*
X91894890Y-126087639D01*
X92012360Y-126205109D01*
X92012364Y-126205112D01*
X92150493Y-126297408D01*
X92150506Y-126297415D01*
X92293393Y-126356600D01*
X92303989Y-126360989D01*
X92444857Y-126389009D01*
X92466927Y-126393399D01*
X92466931Y-126393400D01*
X92466932Y-126393400D01*
X92633069Y-126393400D01*
X92633070Y-126393399D01*
X92796011Y-126360989D01*
X92949500Y-126297412D01*
X93087636Y-126205112D01*
X93205112Y-126087636D01*
X93297412Y-125949500D01*
X93298861Y-125946003D01*
X93339950Y-125846804D01*
X93360989Y-125796011D01*
X93393400Y-125633068D01*
X93393400Y-125466932D01*
X93360989Y-125303989D01*
X93318452Y-125201295D01*
X93297415Y-125150506D01*
X93297408Y-125150493D01*
X93205112Y-125012364D01*
X93205109Y-125012360D01*
X93087639Y-124894890D01*
X93087635Y-124894887D01*
X92949506Y-124802591D01*
X92949496Y-124802586D01*
X92866861Y-124768357D01*
X92812457Y-124724515D01*
X92790393Y-124658221D01*
X92807673Y-124590522D01*
X92826630Y-124566117D01*
X92855112Y-124537636D01*
X92946744Y-124400500D01*
X92947408Y-124399506D01*
X92947408Y-124399505D01*
X92947412Y-124399500D01*
X93010989Y-124246011D01*
X93043400Y-124083068D01*
X93043400Y-123916932D01*
X93043399Y-123916927D01*
X99156600Y-123916927D01*
X99156600Y-124083072D01*
X99189009Y-124246003D01*
X99189012Y-124246015D01*
X99252584Y-124399493D01*
X99252591Y-124399506D01*
X99344887Y-124537635D01*
X99344890Y-124537639D01*
X99462360Y-124655109D01*
X99462364Y-124655112D01*
X99600493Y-124747408D01*
X99600506Y-124747415D01*
X99702829Y-124789798D01*
X99753989Y-124810989D01*
X99916927Y-124843399D01*
X99916931Y-124843400D01*
X99916932Y-124843400D01*
X100083069Y-124843400D01*
X100083070Y-124843399D01*
X100246011Y-124810989D01*
X100399500Y-124747412D01*
X100445124Y-124716927D01*
X110356600Y-124716927D01*
X110356600Y-124883072D01*
X110389009Y-125046003D01*
X110389012Y-125046015D01*
X110452584Y-125199493D01*
X110452591Y-125199506D01*
X110544887Y-125337635D01*
X110544890Y-125337639D01*
X110662360Y-125455109D01*
X110662364Y-125455112D01*
X110800493Y-125547408D01*
X110800506Y-125547415D01*
X110953984Y-125610987D01*
X110953989Y-125610989D01*
X111116927Y-125643399D01*
X111116931Y-125643400D01*
X111116932Y-125643400D01*
X111283069Y-125643400D01*
X111283070Y-125643399D01*
X111446011Y-125610989D01*
X111599500Y-125547412D01*
X111737636Y-125455112D01*
X111855112Y-125337636D01*
X111947412Y-125199500D01*
X111967706Y-125150506D01*
X111985439Y-125107695D01*
X112029280Y-125053291D01*
X112095574Y-125031226D01*
X112163273Y-125048505D01*
X112210884Y-125099642D01*
X112214561Y-125107695D01*
X112252584Y-125199493D01*
X112252591Y-125199506D01*
X112344887Y-125337635D01*
X112344890Y-125337639D01*
X112462360Y-125455109D01*
X112462364Y-125455112D01*
X112600493Y-125547408D01*
X112600506Y-125547415D01*
X112753984Y-125610987D01*
X112753989Y-125610989D01*
X112916927Y-125643399D01*
X112916931Y-125643400D01*
X112916932Y-125643400D01*
X113083069Y-125643400D01*
X113083070Y-125643399D01*
X113216158Y-125616927D01*
X117656600Y-125616927D01*
X117656600Y-125783072D01*
X117689009Y-125946003D01*
X117689012Y-125946015D01*
X117752584Y-126099493D01*
X117752591Y-126099506D01*
X117844887Y-126237635D01*
X117844890Y-126237639D01*
X117962360Y-126355109D01*
X117962364Y-126355112D01*
X118100493Y-126447408D01*
X118100506Y-126447415D01*
X118186591Y-126483072D01*
X118253989Y-126510989D01*
X118416927Y-126543399D01*
X118416931Y-126543400D01*
X118416932Y-126543400D01*
X118583069Y-126543400D01*
X118583070Y-126543399D01*
X118746011Y-126510989D01*
X118899500Y-126447412D01*
X119037636Y-126355112D01*
X119155112Y-126237636D01*
X119247412Y-126099500D01*
X119310989Y-125946011D01*
X119343400Y-125783068D01*
X119343400Y-125616932D01*
X119331399Y-125556600D01*
X119327266Y-125535819D01*
X119327266Y-125535816D01*
X119323666Y-125517716D01*
X119756600Y-125517716D01*
X119756600Y-125683861D01*
X119789009Y-125846792D01*
X119789012Y-125846804D01*
X119852584Y-126000282D01*
X119852591Y-126000295D01*
X119944887Y-126138424D01*
X119944890Y-126138428D01*
X120062360Y-126255898D01*
X120062364Y-126255901D01*
X120200493Y-126348197D01*
X120200506Y-126348204D01*
X120309618Y-126393399D01*
X120353989Y-126411778D01*
X120516927Y-126444188D01*
X120516931Y-126444189D01*
X120516932Y-126444189D01*
X120683069Y-126444189D01*
X120683070Y-126444188D01*
X120846011Y-126411778D01*
X120999500Y-126348201D01*
X121137636Y-126255901D01*
X121255112Y-126138425D01*
X121347412Y-126000289D01*
X121410989Y-125846800D01*
X121443400Y-125683857D01*
X121443400Y-125517721D01*
X121410989Y-125354778D01*
X121403888Y-125337635D01*
X121347415Y-125201295D01*
X121347408Y-125201282D01*
X121255112Y-125063153D01*
X121255109Y-125063149D01*
X121137639Y-124945679D01*
X121137635Y-124945676D01*
X120999506Y-124853380D01*
X120999493Y-124853373D01*
X120846015Y-124789801D01*
X120846003Y-124789798D01*
X120683072Y-124757389D01*
X120683068Y-124757389D01*
X120516932Y-124757389D01*
X120516927Y-124757389D01*
X120353996Y-124789798D01*
X120353984Y-124789801D01*
X120200506Y-124853373D01*
X120200493Y-124853380D01*
X120062364Y-124945676D01*
X120062360Y-124945679D01*
X119944890Y-125063149D01*
X119944887Y-125063153D01*
X119852591Y-125201282D01*
X119852584Y-125201295D01*
X119789012Y-125354773D01*
X119789009Y-125354785D01*
X119756600Y-125517716D01*
X119323666Y-125517716D01*
X119310990Y-125453994D01*
X119310989Y-125453993D01*
X119310989Y-125453989D01*
X119269893Y-125354773D01*
X119247415Y-125300506D01*
X119247408Y-125300493D01*
X119155112Y-125162364D01*
X119155109Y-125162360D01*
X119037639Y-125044890D01*
X119037635Y-125044887D01*
X118899506Y-124952591D01*
X118899493Y-124952584D01*
X118746015Y-124889012D01*
X118746003Y-124889009D01*
X118583072Y-124856600D01*
X118583068Y-124856600D01*
X118416932Y-124856600D01*
X118416927Y-124856600D01*
X118253996Y-124889009D01*
X118253984Y-124889012D01*
X118100506Y-124952584D01*
X118100493Y-124952591D01*
X117962364Y-125044887D01*
X117962360Y-125044890D01*
X117844890Y-125162360D01*
X117844887Y-125162364D01*
X117752591Y-125300493D01*
X117752584Y-125300506D01*
X117689012Y-125453984D01*
X117689009Y-125453996D01*
X117656600Y-125616927D01*
X113216158Y-125616927D01*
X113246011Y-125610989D01*
X113399500Y-125547412D01*
X113416855Y-125535816D01*
X113458877Y-125507738D01*
X113519946Y-125466932D01*
X113537636Y-125455112D01*
X113655112Y-125337636D01*
X113747412Y-125199500D01*
X113810989Y-125046011D01*
X113843400Y-124883068D01*
X113843400Y-124716932D01*
X113810989Y-124553989D01*
X113804217Y-124537639D01*
X113747415Y-124400506D01*
X113747408Y-124400493D01*
X113655112Y-124262364D01*
X113655109Y-124262360D01*
X113537639Y-124144890D01*
X113537635Y-124144887D01*
X113399506Y-124052591D01*
X113399493Y-124052584D01*
X113246015Y-123989012D01*
X113246003Y-123989009D01*
X113083072Y-123956600D01*
X113083068Y-123956600D01*
X112916932Y-123956600D01*
X112916927Y-123956600D01*
X112753996Y-123989009D01*
X112753984Y-123989012D01*
X112600506Y-124052584D01*
X112600493Y-124052591D01*
X112462364Y-124144887D01*
X112462360Y-124144890D01*
X112344890Y-124262360D01*
X112344887Y-124262364D01*
X112252591Y-124400493D01*
X112252586Y-124400502D01*
X112214561Y-124492305D01*
X112170720Y-124546708D01*
X112104426Y-124568773D01*
X112036727Y-124551494D01*
X111989116Y-124500357D01*
X111985439Y-124492305D01*
X111947413Y-124400502D01*
X111947408Y-124400493D01*
X111855112Y-124262364D01*
X111855109Y-124262360D01*
X111737639Y-124144890D01*
X111737635Y-124144887D01*
X111599506Y-124052591D01*
X111599493Y-124052584D01*
X111446015Y-123989012D01*
X111446003Y-123989009D01*
X111283072Y-123956600D01*
X111283068Y-123956600D01*
X111116932Y-123956600D01*
X111116927Y-123956600D01*
X110953996Y-123989009D01*
X110953984Y-123989012D01*
X110800506Y-124052584D01*
X110800493Y-124052591D01*
X110662364Y-124144887D01*
X110662360Y-124144890D01*
X110544890Y-124262360D01*
X110544887Y-124262364D01*
X110452591Y-124400493D01*
X110452584Y-124400506D01*
X110389012Y-124553984D01*
X110389009Y-124553996D01*
X110356600Y-124716927D01*
X100445124Y-124716927D01*
X100537636Y-124655112D01*
X100537639Y-124655109D01*
X100569590Y-124623159D01*
X100655109Y-124537639D01*
X100655112Y-124537636D01*
X100747412Y-124399500D01*
X100810989Y-124246011D01*
X100843400Y-124083068D01*
X100843400Y-123916932D01*
X100810989Y-123753989D01*
X100782011Y-123684029D01*
X100747415Y-123600506D01*
X100747408Y-123600493D01*
X100655112Y-123462364D01*
X100655109Y-123462360D01*
X100537639Y-123344890D01*
X100537635Y-123344887D01*
X100399506Y-123252591D01*
X100399493Y-123252584D01*
X100246015Y-123189012D01*
X100246003Y-123189009D01*
X100083072Y-123156600D01*
X100083068Y-123156600D01*
X99916932Y-123156600D01*
X99916927Y-123156600D01*
X99753996Y-123189009D01*
X99753984Y-123189012D01*
X99600506Y-123252584D01*
X99600493Y-123252591D01*
X99462364Y-123344887D01*
X99462360Y-123344890D01*
X99344890Y-123462360D01*
X99344887Y-123462364D01*
X99252591Y-123600493D01*
X99252584Y-123600506D01*
X99189012Y-123753984D01*
X99189009Y-123753996D01*
X99156600Y-123916927D01*
X93043399Y-123916927D01*
X93010989Y-123753989D01*
X92982011Y-123684029D01*
X92947415Y-123600506D01*
X92947408Y-123600493D01*
X92855112Y-123462364D01*
X92855109Y-123462360D01*
X92737639Y-123344890D01*
X92737635Y-123344887D01*
X92599506Y-123252591D01*
X92599493Y-123252584D01*
X92446015Y-123189012D01*
X92446003Y-123189009D01*
X92283072Y-123156600D01*
X92283068Y-123156600D01*
X92116932Y-123156600D01*
X92116927Y-123156600D01*
X91953996Y-123189009D01*
X91953984Y-123189012D01*
X91800506Y-123252584D01*
X91800493Y-123252591D01*
X91662364Y-123344887D01*
X91662360Y-123344890D01*
X91544890Y-123462360D01*
X91544887Y-123462364D01*
X91452591Y-123600493D01*
X91452584Y-123600506D01*
X91389012Y-123753984D01*
X91389009Y-123753996D01*
X91356600Y-123916927D01*
X78869948Y-123916927D01*
X78878689Y-122416927D01*
X105656600Y-122416927D01*
X105656600Y-122583072D01*
X105689009Y-122746003D01*
X105689012Y-122746015D01*
X105752584Y-122899493D01*
X105752591Y-122899506D01*
X105844887Y-123037635D01*
X105844890Y-123037639D01*
X105962360Y-123155109D01*
X105962364Y-123155112D01*
X106100493Y-123247408D01*
X106100506Y-123247415D01*
X106253984Y-123310987D01*
X106253989Y-123310989D01*
X106416927Y-123343399D01*
X106416931Y-123343400D01*
X106416932Y-123343400D01*
X106583069Y-123343400D01*
X106583070Y-123343399D01*
X106746011Y-123310989D01*
X106899500Y-123247412D01*
X107037636Y-123155112D01*
X107155112Y-123037636D01*
X107247412Y-122899500D01*
X107310989Y-122746011D01*
X107343400Y-122583068D01*
X107343400Y-122416932D01*
X107310989Y-122253989D01*
X107307686Y-122246015D01*
X107247415Y-122100506D01*
X107247408Y-122100493D01*
X107155112Y-121962364D01*
X107155109Y-121962360D01*
X107037639Y-121844890D01*
X107037635Y-121844887D01*
X106899506Y-121752591D01*
X106899493Y-121752584D01*
X106746015Y-121689012D01*
X106746003Y-121689009D01*
X106583072Y-121656600D01*
X106583068Y-121656600D01*
X106416932Y-121656600D01*
X106416927Y-121656600D01*
X106253996Y-121689009D01*
X106253984Y-121689012D01*
X106100506Y-121752584D01*
X106100493Y-121752591D01*
X105962364Y-121844887D01*
X105962360Y-121844890D01*
X105844890Y-121962360D01*
X105844887Y-121962364D01*
X105752591Y-122100493D01*
X105752584Y-122100506D01*
X105689012Y-122253984D01*
X105689009Y-122253996D01*
X105656600Y-122416927D01*
X78878689Y-122416927D01*
X78880741Y-122064795D01*
X78900816Y-121997872D01*
X78953886Y-121952425D01*
X78980549Y-121943900D01*
X78983063Y-121943400D01*
X78983068Y-121943400D01*
X79146011Y-121910989D01*
X79299500Y-121847412D01*
X79437636Y-121755112D01*
X79555112Y-121637636D01*
X79647412Y-121499500D01*
X79710989Y-121346011D01*
X79743400Y-121183068D01*
X79743400Y-121016932D01*
X79710989Y-120853989D01*
X79657771Y-120725508D01*
X79647415Y-120700506D01*
X79647408Y-120700493D01*
X79555112Y-120562364D01*
X79555109Y-120562360D01*
X79437639Y-120444890D01*
X79437635Y-120444887D01*
X79299506Y-120352591D01*
X79299493Y-120352584D01*
X79146015Y-120289012D01*
X79146003Y-120289009D01*
X78991788Y-120258334D01*
X78929877Y-120225949D01*
X78895303Y-120165234D01*
X78891981Y-120135994D01*
X78892163Y-120104796D01*
X78894271Y-119743027D01*
X112331500Y-119743027D01*
X112331500Y-119909172D01*
X112363909Y-120072103D01*
X112363912Y-120072115D01*
X112427484Y-120225593D01*
X112427491Y-120225606D01*
X112519787Y-120363735D01*
X112519790Y-120363739D01*
X112637260Y-120481209D01*
X112637264Y-120481212D01*
X112775393Y-120573508D01*
X112775406Y-120573515D01*
X112928884Y-120637087D01*
X112928889Y-120637089D01*
X113091827Y-120669499D01*
X113091831Y-120669500D01*
X113091832Y-120669500D01*
X113257969Y-120669500D01*
X113257970Y-120669499D01*
X113420911Y-120637089D01*
X113574400Y-120573512D01*
X113712536Y-120481212D01*
X113830012Y-120363736D01*
X113898389Y-120261402D01*
X113952001Y-120216598D01*
X114021326Y-120207891D01*
X114084353Y-120238045D01*
X114121073Y-120297488D01*
X114123108Y-120306103D01*
X114148523Y-120433872D01*
X114148526Y-120433884D01*
X114212098Y-120587362D01*
X114212105Y-120587375D01*
X114304401Y-120725504D01*
X114304404Y-120725508D01*
X114421869Y-120842973D01*
X114421874Y-120842977D01*
X114421878Y-120842981D01*
X114421882Y-120842983D01*
X114424657Y-120845261D01*
X114425725Y-120846829D01*
X114426185Y-120847289D01*
X114426097Y-120847376D01*
X114463994Y-120903006D01*
X114465867Y-120972850D01*
X114429682Y-121032620D01*
X114404452Y-121050475D01*
X114400498Y-121052588D01*
X114262364Y-121144887D01*
X114262360Y-121144890D01*
X114144890Y-121262360D01*
X114144887Y-121262364D01*
X114052591Y-121400493D01*
X114052584Y-121400506D01*
X113989012Y-121553984D01*
X113989009Y-121553996D01*
X113956600Y-121716927D01*
X113956600Y-121883072D01*
X113989009Y-122046003D01*
X113989012Y-122046015D01*
X114052584Y-122199493D01*
X114052591Y-122199506D01*
X114144887Y-122337635D01*
X114144890Y-122337639D01*
X114262360Y-122455109D01*
X114262364Y-122455112D01*
X114400493Y-122547408D01*
X114400506Y-122547415D01*
X114486591Y-122583072D01*
X114553989Y-122610989D01*
X114716927Y-122643399D01*
X114716931Y-122643400D01*
X114716932Y-122643400D01*
X114883069Y-122643400D01*
X114883070Y-122643399D01*
X115046011Y-122610989D01*
X115199500Y-122547412D01*
X115337636Y-122455112D01*
X115455112Y-122337636D01*
X115547412Y-122199500D01*
X115581615Y-122116927D01*
X123756600Y-122116927D01*
X123756600Y-122283072D01*
X123789009Y-122446003D01*
X123789012Y-122446015D01*
X123852584Y-122599493D01*
X123852591Y-122599506D01*
X123944887Y-122737635D01*
X123944890Y-122737639D01*
X124062360Y-122855109D01*
X124062364Y-122855112D01*
X124200493Y-122947408D01*
X124200506Y-122947415D01*
X124353984Y-123010987D01*
X124353989Y-123010989D01*
X124515293Y-123043074D01*
X124516927Y-123043399D01*
X124516931Y-123043400D01*
X124516932Y-123043400D01*
X124683069Y-123043400D01*
X124683070Y-123043399D01*
X124846011Y-123010989D01*
X124999500Y-122947412D01*
X125137636Y-122855112D01*
X125173617Y-122819130D01*
X125234938Y-122785645D01*
X125304630Y-122790629D01*
X125308704Y-122792231D01*
X125353989Y-122810989D01*
X125353992Y-122810989D01*
X125353996Y-122810991D01*
X125516927Y-122843399D01*
X125516931Y-122843400D01*
X125516932Y-122843400D01*
X125683069Y-122843400D01*
X125683070Y-122843399D01*
X125846011Y-122810989D01*
X125999500Y-122747412D01*
X126137636Y-122655112D01*
X126255112Y-122537636D01*
X126347412Y-122399500D01*
X126410989Y-122246011D01*
X126443400Y-122083068D01*
X126443400Y-121916932D01*
X126410989Y-121753989D01*
X126395639Y-121716931D01*
X126347415Y-121600506D01*
X126347408Y-121600493D01*
X126255112Y-121462364D01*
X126255109Y-121462360D01*
X126137639Y-121344890D01*
X126137635Y-121344887D01*
X125999506Y-121252591D01*
X125999493Y-121252584D01*
X125846015Y-121189012D01*
X125846003Y-121189009D01*
X125683072Y-121156600D01*
X125683068Y-121156600D01*
X125516932Y-121156600D01*
X125516927Y-121156600D01*
X125353996Y-121189009D01*
X125353984Y-121189012D01*
X125200506Y-121252584D01*
X125200493Y-121252591D01*
X125062367Y-121344885D01*
X125062361Y-121344890D01*
X125026380Y-121380870D01*
X124965056Y-121414354D01*
X124895365Y-121409368D01*
X124891249Y-121407748D01*
X124846021Y-121389014D01*
X124846004Y-121389009D01*
X124683072Y-121356600D01*
X124683068Y-121356600D01*
X124516932Y-121356600D01*
X124516927Y-121356600D01*
X124353996Y-121389009D01*
X124353984Y-121389012D01*
X124200506Y-121452584D01*
X124200493Y-121452591D01*
X124062364Y-121544887D01*
X124062360Y-121544890D01*
X123944890Y-121662360D01*
X123944887Y-121662364D01*
X123852591Y-121800493D01*
X123852584Y-121800506D01*
X123789012Y-121953984D01*
X123789009Y-121953996D01*
X123756600Y-122116927D01*
X115581615Y-122116927D01*
X115595640Y-122083068D01*
X115603792Y-122063387D01*
X115603792Y-122063386D01*
X115610987Y-122046015D01*
X115610989Y-122046011D01*
X115643400Y-121883068D01*
X115643400Y-121716932D01*
X115610989Y-121553989D01*
X115607219Y-121544887D01*
X115547415Y-121400506D01*
X115547408Y-121400493D01*
X115455112Y-121262364D01*
X115455109Y-121262360D01*
X115337636Y-121144887D01*
X115334855Y-121142605D01*
X115333788Y-121141039D01*
X115333329Y-121140580D01*
X115333416Y-121140492D01*
X115295519Y-121084861D01*
X115293646Y-121015016D01*
X115329832Y-120955247D01*
X115355075Y-120937386D01*
X115359006Y-120935283D01*
X115359014Y-120935281D01*
X115415335Y-120897648D01*
X133699500Y-120897648D01*
X133699500Y-121102351D01*
X133731522Y-121304534D01*
X133794781Y-121499223D01*
X133887715Y-121681613D01*
X134008028Y-121847213D01*
X134152786Y-121991971D01*
X134302157Y-122100493D01*
X134318390Y-122112287D01*
X134434607Y-122171503D01*
X134500776Y-122205218D01*
X134500778Y-122205218D01*
X134500781Y-122205220D01*
X134573516Y-122228853D01*
X134695465Y-122268477D01*
X134787588Y-122283068D01*
X134897648Y-122300500D01*
X134897649Y-122300500D01*
X135102351Y-122300500D01*
X135102352Y-122300500D01*
X135304534Y-122268477D01*
X135499219Y-122205220D01*
X135681610Y-122112287D01*
X135774590Y-122044732D01*
X135847213Y-121991971D01*
X135847215Y-121991968D01*
X135847219Y-121991966D01*
X135991966Y-121847219D01*
X135991968Y-121847215D01*
X135991971Y-121847213D01*
X136059701Y-121753989D01*
X136112287Y-121681610D01*
X136205220Y-121499219D01*
X136268477Y-121304534D01*
X136300500Y-121102352D01*
X136300500Y-120897648D01*
X140199500Y-120897648D01*
X140199500Y-121102351D01*
X140231522Y-121304534D01*
X140294781Y-121499223D01*
X140387715Y-121681613D01*
X140508028Y-121847213D01*
X140508034Y-121847219D01*
X140652781Y-121991966D01*
X140806862Y-122103911D01*
X140849527Y-122159240D01*
X140855506Y-122228853D01*
X140822901Y-122290649D01*
X140821658Y-122291910D01*
X140765970Y-122347598D01*
X140662555Y-122502368D01*
X140662550Y-122502377D01*
X140591316Y-122674353D01*
X140591314Y-122674361D01*
X140555000Y-122856921D01*
X140555000Y-123043078D01*
X140591314Y-123225638D01*
X140591316Y-123225646D01*
X140662550Y-123397622D01*
X140662555Y-123397631D01*
X140765970Y-123552401D01*
X140765973Y-123552405D01*
X140897594Y-123684026D01*
X140897598Y-123684029D01*
X141052368Y-123787444D01*
X141052374Y-123787447D01*
X141052375Y-123787448D01*
X141224354Y-123858684D01*
X141406921Y-123894999D01*
X141406924Y-123895000D01*
X141406926Y-123895000D01*
X141593076Y-123895000D01*
X141593077Y-123894999D01*
X141775646Y-123858684D01*
X141947625Y-123787448D01*
X142102402Y-123684029D01*
X142234029Y-123552402D01*
X142337448Y-123397625D01*
X142408684Y-123225646D01*
X142445000Y-123043074D01*
X142445000Y-122856926D01*
X142445000Y-122856923D01*
X142444999Y-122856921D01*
X142435863Y-122810990D01*
X142408684Y-122674354D01*
X142337448Y-122502375D01*
X142337447Y-122502374D01*
X142337444Y-122502368D01*
X142234029Y-122347598D01*
X142234026Y-122347594D01*
X142178342Y-122291910D01*
X142144857Y-122230587D01*
X142149841Y-122160895D01*
X142191713Y-122104962D01*
X142193071Y-122103960D01*
X142347219Y-121991966D01*
X142491966Y-121847219D01*
X142491968Y-121847215D01*
X142491971Y-121847213D01*
X142559701Y-121753989D01*
X142612287Y-121681610D01*
X142705220Y-121499219D01*
X142768477Y-121304534D01*
X142800500Y-121102352D01*
X142800500Y-120897648D01*
X142792203Y-120845261D01*
X142768477Y-120695465D01*
X142728850Y-120573508D01*
X142705220Y-120500781D01*
X142705218Y-120500778D01*
X142705218Y-120500776D01*
X142671128Y-120433872D01*
X142612287Y-120318390D01*
X142577814Y-120270941D01*
X142491971Y-120152786D01*
X142347213Y-120008028D01*
X142181613Y-119887715D01*
X142181612Y-119887714D01*
X142181610Y-119887713D01*
X142124653Y-119858691D01*
X141999223Y-119794781D01*
X141804534Y-119731522D01*
X141629995Y-119703878D01*
X141602352Y-119699500D01*
X141397648Y-119699500D01*
X141373329Y-119703351D01*
X141195465Y-119731522D01*
X141000776Y-119794781D01*
X140818386Y-119887715D01*
X140652786Y-120008028D01*
X140508028Y-120152786D01*
X140387715Y-120318386D01*
X140294781Y-120500776D01*
X140231522Y-120695465D01*
X140199500Y-120897648D01*
X136300500Y-120897648D01*
X136292203Y-120845261D01*
X136268477Y-120695465D01*
X136228850Y-120573508D01*
X136205220Y-120500781D01*
X136205218Y-120500778D01*
X136205218Y-120500776D01*
X136171128Y-120433872D01*
X136112287Y-120318390D01*
X136077814Y-120270941D01*
X135991971Y-120152786D01*
X135847213Y-120008028D01*
X135681613Y-119887715D01*
X135681612Y-119887714D01*
X135681610Y-119887713D01*
X135624653Y-119858691D01*
X135499223Y-119794781D01*
X135304534Y-119731522D01*
X135129995Y-119703878D01*
X135102352Y-119699500D01*
X134897648Y-119699500D01*
X134873329Y-119703351D01*
X134695465Y-119731522D01*
X134500776Y-119794781D01*
X134318386Y-119887715D01*
X134152786Y-120008028D01*
X134008028Y-120152786D01*
X133887715Y-120318386D01*
X133794781Y-120500776D01*
X133731522Y-120695465D01*
X133699500Y-120897648D01*
X115415335Y-120897648D01*
X115497150Y-120842981D01*
X115511465Y-120828666D01*
X115535037Y-120805095D01*
X115614623Y-120725508D01*
X115614626Y-120725505D01*
X115706926Y-120587369D01*
X115712665Y-120573515D01*
X115742794Y-120500776D01*
X115770503Y-120433880D01*
X115802914Y-120270937D01*
X115802914Y-120104801D01*
X115770503Y-119941858D01*
X115756964Y-119909172D01*
X115706929Y-119788375D01*
X115706922Y-119788362D01*
X115614626Y-119650233D01*
X115614623Y-119650229D01*
X115497153Y-119532759D01*
X115497149Y-119532756D01*
X115359020Y-119440460D01*
X115359010Y-119440455D01*
X115332212Y-119429355D01*
X115277809Y-119385514D01*
X115255744Y-119319220D01*
X115273023Y-119251520D01*
X115324161Y-119203910D01*
X115333998Y-119199989D01*
X115333889Y-119199725D01*
X115492998Y-119133820D01*
X115492998Y-119133819D01*
X115493005Y-119133817D01*
X115631141Y-119041517D01*
X115748617Y-118924041D01*
X115840917Y-118785905D01*
X115904494Y-118632416D01*
X115907315Y-118618228D01*
X115908753Y-118611002D01*
X117126837Y-118611002D01*
X117126837Y-118777147D01*
X117159246Y-118940078D01*
X117159249Y-118940090D01*
X117222821Y-119093568D01*
X117222828Y-119093581D01*
X117315124Y-119231710D01*
X117315127Y-119231714D01*
X117432597Y-119349184D01*
X117432601Y-119349187D01*
X117570730Y-119441483D01*
X117570743Y-119441490D01*
X117724221Y-119505062D01*
X117724226Y-119505064D01*
X117863445Y-119532756D01*
X117887164Y-119537474D01*
X117887168Y-119537475D01*
X117887169Y-119537475D01*
X118053306Y-119537475D01*
X118053307Y-119537474D01*
X118216248Y-119505064D01*
X118369737Y-119441487D01*
X118507873Y-119349187D01*
X118625349Y-119231711D01*
X118717649Y-119093575D01*
X118781226Y-118940086D01*
X118813637Y-118777143D01*
X118813637Y-118611007D01*
X118802295Y-118553984D01*
X118780038Y-118442089D01*
X118782399Y-118441619D01*
X118781848Y-118382392D01*
X118819075Y-118323265D01*
X118877370Y-118295984D01*
X118877093Y-118294589D01*
X118955517Y-118278989D01*
X119046011Y-118260989D01*
X119199500Y-118197412D01*
X119337636Y-118105112D01*
X119455112Y-117987636D01*
X119547412Y-117849500D01*
X119547717Y-117848765D01*
X119596375Y-117731292D01*
X119610989Y-117696011D01*
X119643400Y-117533068D01*
X119643400Y-117366932D01*
X119610989Y-117203989D01*
X119583505Y-117137636D01*
X119547415Y-117050506D01*
X119547408Y-117050493D01*
X119455112Y-116912364D01*
X119455109Y-116912360D01*
X119337639Y-116794890D01*
X119337635Y-116794887D01*
X119199506Y-116702591D01*
X119199493Y-116702584D01*
X119046015Y-116639012D01*
X119046003Y-116639009D01*
X118883072Y-116606600D01*
X118883068Y-116606600D01*
X118716932Y-116606600D01*
X118716927Y-116606600D01*
X118553996Y-116639009D01*
X118553984Y-116639012D01*
X118400506Y-116702584D01*
X118400493Y-116702591D01*
X118262364Y-116794887D01*
X118262360Y-116794890D01*
X118144890Y-116912360D01*
X118144887Y-116912364D01*
X118052591Y-117050493D01*
X118052584Y-117050506D01*
X117989012Y-117203984D01*
X117989009Y-117203996D01*
X117956600Y-117366927D01*
X117956600Y-117533072D01*
X117990199Y-117701986D01*
X117987846Y-117702453D01*
X117988375Y-117761728D01*
X117951126Y-117820840D01*
X117892864Y-117848078D01*
X117893144Y-117849486D01*
X117724233Y-117883084D01*
X117724221Y-117883087D01*
X117570743Y-117946659D01*
X117570730Y-117946666D01*
X117432601Y-118038962D01*
X117432597Y-118038965D01*
X117315127Y-118156435D01*
X117315124Y-118156439D01*
X117222828Y-118294568D01*
X117222821Y-118294581D01*
X117159249Y-118448059D01*
X117159246Y-118448071D01*
X117126837Y-118611002D01*
X115908753Y-118611002D01*
X115914771Y-118580752D01*
X115914776Y-118580724D01*
X115936905Y-118469473D01*
X115936905Y-118303337D01*
X115904494Y-118140394D01*
X115841790Y-117989012D01*
X115840920Y-117986911D01*
X115840913Y-117986898D01*
X115748617Y-117848769D01*
X115748614Y-117848765D01*
X115631144Y-117731295D01*
X115631140Y-117731292D01*
X115493011Y-117638996D01*
X115492998Y-117638989D01*
X115339520Y-117575417D01*
X115339508Y-117575414D01*
X115176577Y-117543005D01*
X115176573Y-117543005D01*
X115010437Y-117543005D01*
X115010432Y-117543005D01*
X114847501Y-117575414D01*
X114847489Y-117575417D01*
X114694011Y-117638989D01*
X114693998Y-117638996D01*
X114555869Y-117731292D01*
X114555865Y-117731295D01*
X114438395Y-117848765D01*
X114438392Y-117848769D01*
X114346096Y-117986898D01*
X114346089Y-117986911D01*
X114282517Y-118140389D01*
X114282514Y-118140401D01*
X114250105Y-118303332D01*
X114250105Y-118469477D01*
X114282514Y-118632408D01*
X114282517Y-118632420D01*
X114346089Y-118785898D01*
X114346096Y-118785911D01*
X114438392Y-118924040D01*
X114438395Y-118924044D01*
X114555865Y-119041514D01*
X114555869Y-119041517D01*
X114693998Y-119133813D01*
X114694005Y-119133817D01*
X114720805Y-119144917D01*
X114775208Y-119188758D01*
X114797274Y-119255051D01*
X114779996Y-119322751D01*
X114728859Y-119370362D01*
X114719021Y-119374286D01*
X114719130Y-119374549D01*
X114560020Y-119440453D01*
X114560007Y-119440460D01*
X114421878Y-119532756D01*
X114421874Y-119532759D01*
X114304404Y-119650229D01*
X114236024Y-119752566D01*
X114182411Y-119797370D01*
X114113086Y-119806077D01*
X114050059Y-119775922D01*
X114013340Y-119716478D01*
X114011309Y-119707889D01*
X113985889Y-119580089D01*
X113968238Y-119537475D01*
X113922315Y-119426606D01*
X113922308Y-119426593D01*
X113830012Y-119288464D01*
X113830009Y-119288460D01*
X113712539Y-119170990D01*
X113712535Y-119170987D01*
X113574406Y-119078691D01*
X113574393Y-119078684D01*
X113420915Y-119015112D01*
X113420903Y-119015109D01*
X113257972Y-118982700D01*
X113257968Y-118982700D01*
X113091832Y-118982700D01*
X113091827Y-118982700D01*
X112928896Y-119015109D01*
X112928884Y-119015112D01*
X112775406Y-119078684D01*
X112775393Y-119078691D01*
X112637264Y-119170987D01*
X112637260Y-119170990D01*
X112519790Y-119288460D01*
X112519787Y-119288464D01*
X112427491Y-119426593D01*
X112427484Y-119426606D01*
X112363912Y-119580084D01*
X112363909Y-119580096D01*
X112331500Y-119743027D01*
X78894271Y-119743027D01*
X78900251Y-118716927D01*
X109556600Y-118716927D01*
X109556600Y-118883072D01*
X109589009Y-119046003D01*
X109589012Y-119046015D01*
X109652584Y-119199493D01*
X109652591Y-119199506D01*
X109744887Y-119337635D01*
X109744890Y-119337639D01*
X109862360Y-119455109D01*
X109862364Y-119455112D01*
X110000493Y-119547408D01*
X110000506Y-119547415D01*
X110079406Y-119580096D01*
X110153989Y-119610989D01*
X110316927Y-119643399D01*
X110316931Y-119643400D01*
X110316932Y-119643400D01*
X110483069Y-119643400D01*
X110483070Y-119643399D01*
X110521530Y-119635749D01*
X110624225Y-119615323D01*
X110634677Y-119613243D01*
X110646011Y-119610989D01*
X110799500Y-119547412D01*
X110937636Y-119455112D01*
X111055112Y-119337636D01*
X111147412Y-119199500D01*
X111151862Y-119188758D01*
X111191290Y-119093568D01*
X111210989Y-119046011D01*
X111243400Y-118883068D01*
X111243400Y-118716932D01*
X111210989Y-118553989D01*
X111175983Y-118469477D01*
X111147415Y-118400506D01*
X111147408Y-118400493D01*
X111055112Y-118262364D01*
X111055109Y-118262360D01*
X110937639Y-118144890D01*
X110937635Y-118144887D01*
X110799506Y-118052591D01*
X110799493Y-118052584D01*
X110646015Y-117989012D01*
X110646003Y-117989009D01*
X110483072Y-117956600D01*
X110483068Y-117956600D01*
X110316932Y-117956600D01*
X110316927Y-117956600D01*
X110153996Y-117989009D01*
X110153984Y-117989012D01*
X110000506Y-118052584D01*
X110000493Y-118052591D01*
X109862364Y-118144887D01*
X109862360Y-118144890D01*
X109744890Y-118262360D01*
X109744887Y-118262364D01*
X109652591Y-118400493D01*
X109652584Y-118400506D01*
X109589012Y-118553984D01*
X109589009Y-118553996D01*
X109556600Y-118716927D01*
X78900251Y-118716927D01*
X78913071Y-116516927D01*
X104156600Y-116516927D01*
X104156600Y-116683072D01*
X104189009Y-116846003D01*
X104189012Y-116846015D01*
X104252584Y-116999493D01*
X104252591Y-116999506D01*
X104344887Y-117137635D01*
X104344890Y-117137639D01*
X104462360Y-117255109D01*
X104462364Y-117255112D01*
X104600493Y-117347408D01*
X104600506Y-117347415D01*
X104686584Y-117383069D01*
X104753989Y-117410989D01*
X104785346Y-117417226D01*
X104847256Y-117449609D01*
X104881831Y-117510325D01*
X104882772Y-117514649D01*
X104889010Y-117546008D01*
X104889012Y-117546015D01*
X104952584Y-117699493D01*
X104952591Y-117699506D01*
X105044887Y-117837635D01*
X105044890Y-117837639D01*
X105162360Y-117955109D01*
X105162364Y-117955112D01*
X105300493Y-118047408D01*
X105300506Y-118047415D01*
X105453984Y-118110987D01*
X105453989Y-118110989D01*
X105601795Y-118140389D01*
X105616927Y-118143399D01*
X105616931Y-118143400D01*
X105616932Y-118143400D01*
X105783069Y-118143400D01*
X105783070Y-118143399D01*
X105946011Y-118110989D01*
X106099500Y-118047412D01*
X106237636Y-117955112D01*
X106355112Y-117837636D01*
X106447412Y-117699500D01*
X106448861Y-117696003D01*
X106483538Y-117612284D01*
X106510989Y-117546011D01*
X106543400Y-117383068D01*
X106543400Y-117216932D01*
X106510989Y-117053989D01*
X106509541Y-117050493D01*
X106447415Y-116900506D01*
X106447408Y-116900493D01*
X106355112Y-116762364D01*
X106355109Y-116762360D01*
X106237639Y-116644890D01*
X106237635Y-116644887D01*
X106099506Y-116552591D01*
X106099493Y-116552584D01*
X105946015Y-116489012D01*
X105946008Y-116489010D01*
X105914649Y-116482772D01*
X105852739Y-116450386D01*
X105822433Y-116403871D01*
X105820149Y-116397648D01*
X133699500Y-116397648D01*
X133699500Y-116602351D01*
X133731522Y-116804534D01*
X133794781Y-116999223D01*
X133887715Y-117181613D01*
X134008028Y-117347213D01*
X134152786Y-117491971D01*
X134267638Y-117575414D01*
X134318390Y-117612287D01*
X134434607Y-117671503D01*
X134500776Y-117705218D01*
X134500778Y-117705218D01*
X134500781Y-117705220D01*
X134581032Y-117731295D01*
X134695465Y-117768477D01*
X134796557Y-117784488D01*
X134897648Y-117800500D01*
X134897649Y-117800500D01*
X135102351Y-117800500D01*
X135102352Y-117800500D01*
X135304534Y-117768477D01*
X135499219Y-117705220D01*
X135681610Y-117612287D01*
X135790645Y-117533069D01*
X135847213Y-117491971D01*
X135847215Y-117491968D01*
X135847219Y-117491966D01*
X135991966Y-117347219D01*
X135991968Y-117347215D01*
X135991971Y-117347213D01*
X136086624Y-117216932D01*
X136112287Y-117181610D01*
X136205220Y-116999219D01*
X136268477Y-116804534D01*
X136300500Y-116602352D01*
X136300500Y-116397648D01*
X140199500Y-116397648D01*
X140199500Y-116602351D01*
X140231522Y-116804534D01*
X140294781Y-116999223D01*
X140387715Y-117181613D01*
X140508028Y-117347213D01*
X140652786Y-117491971D01*
X140767638Y-117575414D01*
X140818390Y-117612287D01*
X140934607Y-117671503D01*
X141000776Y-117705218D01*
X141000778Y-117705218D01*
X141000781Y-117705220D01*
X141081032Y-117731295D01*
X141195465Y-117768477D01*
X141296557Y-117784488D01*
X141397648Y-117800500D01*
X141397649Y-117800500D01*
X141602351Y-117800500D01*
X141602352Y-117800500D01*
X141804534Y-117768477D01*
X141999219Y-117705220D01*
X142181610Y-117612287D01*
X142290645Y-117533069D01*
X142347213Y-117491971D01*
X142347215Y-117491968D01*
X142347219Y-117491966D01*
X142491966Y-117347219D01*
X142491968Y-117347215D01*
X142491971Y-117347213D01*
X142586624Y-117216932D01*
X142612287Y-117181610D01*
X142705220Y-116999219D01*
X142768477Y-116804534D01*
X142800500Y-116602352D01*
X142800500Y-116397648D01*
X142791908Y-116343399D01*
X142768477Y-116195465D01*
X142729534Y-116075613D01*
X142705220Y-116000781D01*
X142705218Y-116000778D01*
X142705218Y-116000776D01*
X142671503Y-115934607D01*
X142612287Y-115818390D01*
X142568310Y-115757860D01*
X142491971Y-115652786D01*
X142347213Y-115508028D01*
X142181613Y-115387715D01*
X142181612Y-115387714D01*
X142181610Y-115387713D01*
X142117621Y-115355109D01*
X141999223Y-115294781D01*
X141804534Y-115231522D01*
X141629995Y-115203878D01*
X141602352Y-115199500D01*
X141397648Y-115199500D01*
X141373329Y-115203351D01*
X141195465Y-115231522D01*
X141000776Y-115294781D01*
X140818386Y-115387715D01*
X140652786Y-115508028D01*
X140508028Y-115652786D01*
X140387715Y-115818386D01*
X140294781Y-116000776D01*
X140231522Y-116195465D01*
X140199500Y-116397648D01*
X136300500Y-116397648D01*
X136291908Y-116343399D01*
X136268477Y-116195465D01*
X136229534Y-116075613D01*
X136205220Y-116000781D01*
X136205218Y-116000778D01*
X136205218Y-116000776D01*
X136171503Y-115934607D01*
X136112287Y-115818390D01*
X136068310Y-115757860D01*
X135991971Y-115652786D01*
X135847213Y-115508028D01*
X135681613Y-115387715D01*
X135681612Y-115387714D01*
X135681610Y-115387713D01*
X135617621Y-115355109D01*
X135499223Y-115294781D01*
X135304534Y-115231522D01*
X135129995Y-115203878D01*
X135102352Y-115199500D01*
X134897648Y-115199500D01*
X134873329Y-115203351D01*
X134695465Y-115231522D01*
X134500776Y-115294781D01*
X134318386Y-115387715D01*
X134152786Y-115508028D01*
X134008028Y-115652786D01*
X133887715Y-115818386D01*
X133794781Y-116000776D01*
X133731522Y-116195465D01*
X133699500Y-116397648D01*
X105820149Y-116397648D01*
X105819109Y-116394813D01*
X105810989Y-116353989D01*
X105750872Y-116208854D01*
X105749999Y-116206474D01*
X105747852Y-116174049D01*
X105744379Y-116141741D01*
X105745558Y-116139385D01*
X105745384Y-116136757D01*
X105761108Y-116108318D01*
X105775654Y-116079262D01*
X105777919Y-116077917D01*
X105779194Y-116075613D01*
X105807793Y-116060192D01*
X105835743Y-116043610D01*
X105838696Y-116043530D01*
X105840694Y-116042454D01*
X105850569Y-116043212D01*
X105890600Y-116042141D01*
X105896927Y-116043399D01*
X105896931Y-116043400D01*
X105896932Y-116043400D01*
X106063069Y-116043400D01*
X106063070Y-116043399D01*
X106226011Y-116010989D01*
X106379500Y-115947412D01*
X106517636Y-115855112D01*
X106635112Y-115737636D01*
X106727412Y-115599500D01*
X106790989Y-115446011D01*
X106823400Y-115283068D01*
X106823400Y-115116932D01*
X106790989Y-114953989D01*
X106787686Y-114946015D01*
X106727415Y-114800506D01*
X106727408Y-114800493D01*
X106646717Y-114679731D01*
X106646716Y-114679730D01*
X106635114Y-114662366D01*
X106635109Y-114662360D01*
X106589676Y-114616927D01*
X128986700Y-114616927D01*
X128986700Y-114783072D01*
X129019109Y-114946003D01*
X129019112Y-114946015D01*
X129082684Y-115099493D01*
X129082691Y-115099506D01*
X129174987Y-115237635D01*
X129174990Y-115237639D01*
X129292460Y-115355109D01*
X129292464Y-115355112D01*
X129430593Y-115447408D01*
X129430606Y-115447415D01*
X129558367Y-115500334D01*
X129576940Y-115508028D01*
X129586250Y-115511884D01*
X129640654Y-115555724D01*
X129660415Y-115602253D01*
X129689009Y-115746005D01*
X129689012Y-115746015D01*
X129752584Y-115899493D01*
X129752591Y-115899506D01*
X129844887Y-116037635D01*
X129844890Y-116037639D01*
X129962360Y-116155109D01*
X129962364Y-116155112D01*
X130100493Y-116247408D01*
X130100506Y-116247415D01*
X130174865Y-116278215D01*
X130253989Y-116310989D01*
X130416927Y-116343399D01*
X130416931Y-116343400D01*
X130416932Y-116343400D01*
X130583069Y-116343400D01*
X130583070Y-116343399D01*
X130746011Y-116310989D01*
X130899500Y-116247412D01*
X131037636Y-116155112D01*
X131155112Y-116037636D01*
X131247412Y-115899500D01*
X131310989Y-115746011D01*
X131343400Y-115583068D01*
X131343400Y-115416932D01*
X131310989Y-115253989D01*
X131304217Y-115237639D01*
X131247415Y-115100506D01*
X131247408Y-115100493D01*
X131155112Y-114962364D01*
X131155109Y-114962360D01*
X131037639Y-114844890D01*
X131037635Y-114844887D01*
X130899506Y-114752591D01*
X130899497Y-114752586D01*
X130743848Y-114688115D01*
X130689445Y-114644274D01*
X130669684Y-114597745D01*
X130641312Y-114455112D01*
X130641089Y-114453989D01*
X130634317Y-114437639D01*
X130577515Y-114300506D01*
X130577508Y-114300493D01*
X130485212Y-114162364D01*
X130485209Y-114162360D01*
X130367739Y-114044890D01*
X130367735Y-114044887D01*
X130229606Y-113952591D01*
X130229593Y-113952584D01*
X130076115Y-113889012D01*
X130076103Y-113889009D01*
X129913172Y-113856600D01*
X129913168Y-113856600D01*
X129747032Y-113856600D01*
X129747027Y-113856600D01*
X129584096Y-113889009D01*
X129584084Y-113889012D01*
X129430606Y-113952584D01*
X129430593Y-113952591D01*
X129292464Y-114044887D01*
X129292460Y-114044890D01*
X129174990Y-114162360D01*
X129174987Y-114162364D01*
X129082691Y-114300493D01*
X129082684Y-114300506D01*
X129019112Y-114453984D01*
X129019109Y-114453996D01*
X128986700Y-114616927D01*
X106589676Y-114616927D01*
X106517639Y-114544890D01*
X106517635Y-114544887D01*
X106379506Y-114452591D01*
X106379493Y-114452584D01*
X106226015Y-114389012D01*
X106226003Y-114389009D01*
X106063072Y-114356600D01*
X106063068Y-114356600D01*
X105896932Y-114356600D01*
X105896927Y-114356600D01*
X105733996Y-114389009D01*
X105733984Y-114389012D01*
X105580506Y-114452584D01*
X105580493Y-114452591D01*
X105442364Y-114544887D01*
X105442360Y-114544890D01*
X105324890Y-114662360D01*
X105324887Y-114662364D01*
X105232591Y-114800493D01*
X105232584Y-114800506D01*
X105169012Y-114953984D01*
X105169009Y-114953996D01*
X105136600Y-115116927D01*
X105136600Y-115283072D01*
X105169009Y-115446003D01*
X105169011Y-115446011D01*
X105228151Y-115588788D01*
X105235620Y-115658258D01*
X105204345Y-115720737D01*
X105144256Y-115756389D01*
X105089407Y-115757860D01*
X105083071Y-115756600D01*
X105083068Y-115756600D01*
X104916932Y-115756600D01*
X104916927Y-115756600D01*
X104753996Y-115789009D01*
X104753984Y-115789012D01*
X104600506Y-115852584D01*
X104600493Y-115852591D01*
X104462364Y-115944887D01*
X104462360Y-115944890D01*
X104344890Y-116062360D01*
X104344887Y-116062364D01*
X104252591Y-116200493D01*
X104252584Y-116200506D01*
X104189012Y-116353984D01*
X104189009Y-116353996D01*
X104156600Y-116516927D01*
X78913071Y-116516927D01*
X78927498Y-114041259D01*
X78947573Y-113974338D01*
X79000643Y-113928891D01*
X79037912Y-113918731D01*
X79962293Y-113816927D01*
X94556600Y-113816927D01*
X94556600Y-113983072D01*
X94589009Y-114146003D01*
X94589012Y-114146015D01*
X94652584Y-114299493D01*
X94652591Y-114299506D01*
X94744887Y-114437635D01*
X94744890Y-114437639D01*
X94862360Y-114555109D01*
X94862364Y-114555112D01*
X95000493Y-114647408D01*
X95000506Y-114647415D01*
X95078525Y-114679731D01*
X95153989Y-114710989D01*
X95316927Y-114743399D01*
X95316931Y-114743400D01*
X95316932Y-114743400D01*
X95483069Y-114743400D01*
X95483070Y-114743399D01*
X95646011Y-114710989D01*
X95799500Y-114647412D01*
X95937636Y-114555112D01*
X96055112Y-114437636D01*
X96147412Y-114299500D01*
X96210989Y-114146011D01*
X96243400Y-113983068D01*
X96243400Y-113816932D01*
X96227109Y-113735030D01*
X96227109Y-113735027D01*
X96223509Y-113716927D01*
X102356600Y-113716927D01*
X102356600Y-113883072D01*
X102389009Y-114046003D01*
X102389012Y-114046015D01*
X102452584Y-114199493D01*
X102452591Y-114199506D01*
X102544887Y-114337635D01*
X102544890Y-114337639D01*
X102662360Y-114455109D01*
X102662364Y-114455112D01*
X102800493Y-114547408D01*
X102800506Y-114547415D01*
X102922015Y-114597745D01*
X102953989Y-114610989D01*
X103116927Y-114643399D01*
X103116931Y-114643400D01*
X103116932Y-114643400D01*
X103283069Y-114643400D01*
X103283070Y-114643399D01*
X103446011Y-114610989D01*
X103564721Y-114561817D01*
X103599493Y-114547415D01*
X103599493Y-114547414D01*
X103599500Y-114547412D01*
X103737636Y-114455112D01*
X103855112Y-114337636D01*
X103947412Y-114199500D01*
X104010989Y-114046011D01*
X104043400Y-113883068D01*
X104043400Y-113716932D01*
X104010989Y-113553989D01*
X103988833Y-113500500D01*
X103947415Y-113400506D01*
X103947408Y-113400493D01*
X103855112Y-113262364D01*
X103855109Y-113262360D01*
X103737639Y-113144890D01*
X103737635Y-113144887D01*
X103599506Y-113052591D01*
X103599493Y-113052584D01*
X103446015Y-112989012D01*
X103446003Y-112989009D01*
X103283072Y-112956600D01*
X103283068Y-112956600D01*
X103116932Y-112956600D01*
X103116927Y-112956600D01*
X102953996Y-112989009D01*
X102953984Y-112989012D01*
X102800506Y-113052584D01*
X102800493Y-113052591D01*
X102662364Y-113144887D01*
X102662360Y-113144890D01*
X102544890Y-113262360D01*
X102544887Y-113262364D01*
X102452591Y-113400493D01*
X102452584Y-113400506D01*
X102389012Y-113553984D01*
X102389009Y-113553996D01*
X102356600Y-113716927D01*
X96223509Y-113716927D01*
X96210990Y-113653994D01*
X96210989Y-113653993D01*
X96210989Y-113653989D01*
X96206603Y-113643400D01*
X96147415Y-113500506D01*
X96147408Y-113500493D01*
X96055112Y-113362364D01*
X96055109Y-113362360D01*
X95937639Y-113244890D01*
X95937635Y-113244887D01*
X95799506Y-113152591D01*
X95799493Y-113152584D01*
X95646015Y-113089012D01*
X95646003Y-113089009D01*
X95483072Y-113056600D01*
X95483068Y-113056600D01*
X95316932Y-113056600D01*
X95316927Y-113056600D01*
X95153996Y-113089009D01*
X95153984Y-113089012D01*
X95000506Y-113152584D01*
X95000493Y-113152591D01*
X94862364Y-113244887D01*
X94862360Y-113244890D01*
X94744890Y-113362360D01*
X94744887Y-113362364D01*
X94652591Y-113500493D01*
X94652584Y-113500506D01*
X94589012Y-113653984D01*
X94589009Y-113653996D01*
X94556600Y-113816927D01*
X79962293Y-113816927D01*
X89950298Y-112716927D01*
X109156600Y-112716927D01*
X109156600Y-112883072D01*
X109189009Y-113046003D01*
X109189012Y-113046015D01*
X109252584Y-113199493D01*
X109252591Y-113199506D01*
X109344887Y-113337635D01*
X109344890Y-113337639D01*
X109462360Y-113455109D01*
X109462364Y-113455112D01*
X109600493Y-113547408D01*
X109600506Y-113547415D01*
X109753984Y-113610987D01*
X109753989Y-113610989D01*
X109916927Y-113643399D01*
X109916931Y-113643400D01*
X109916932Y-113643400D01*
X110083069Y-113643400D01*
X110083070Y-113643399D01*
X110246011Y-113610989D01*
X110399500Y-113547412D01*
X110537636Y-113455112D01*
X110655112Y-113337636D01*
X110747412Y-113199500D01*
X110810989Y-113046011D01*
X110843400Y-112883068D01*
X110843400Y-112716932D01*
X110810989Y-112553989D01*
X110772048Y-112459976D01*
X110747415Y-112400506D01*
X110747408Y-112400493D01*
X110655112Y-112262364D01*
X110655109Y-112262360D01*
X110537639Y-112144890D01*
X110537635Y-112144887D01*
X110399506Y-112052591D01*
X110399493Y-112052584D01*
X110246015Y-111989012D01*
X110246003Y-111989009D01*
X110083072Y-111956600D01*
X110083068Y-111956600D01*
X109916932Y-111956600D01*
X109916927Y-111956600D01*
X109753996Y-111989009D01*
X109753984Y-111989012D01*
X109600506Y-112052584D01*
X109600493Y-112052591D01*
X109462364Y-112144887D01*
X109462360Y-112144890D01*
X109344890Y-112262360D01*
X109344887Y-112262364D01*
X109252591Y-112400493D01*
X109252584Y-112400506D01*
X109189012Y-112553984D01*
X109189009Y-112553996D01*
X109156600Y-112716927D01*
X89950298Y-112716927D01*
X101000000Y-111500000D01*
X101000000Y-111416927D01*
X111156600Y-111416927D01*
X111156600Y-111583072D01*
X111189009Y-111746003D01*
X111189012Y-111746015D01*
X111252584Y-111899493D01*
X111252591Y-111899506D01*
X111344887Y-112037635D01*
X111344890Y-112037639D01*
X111462360Y-112155109D01*
X111462364Y-112155112D01*
X111600493Y-112247408D01*
X111600506Y-112247415D01*
X111753984Y-112310987D01*
X111753989Y-112310989D01*
X111891589Y-112338359D01*
X111916927Y-112343399D01*
X111916931Y-112343400D01*
X111916932Y-112343400D01*
X112083067Y-112343400D01*
X112083068Y-112343400D01*
X112108409Y-112338359D01*
X112177997Y-112344585D01*
X112233176Y-112387447D01*
X112256422Y-112453336D01*
X112256600Y-112459976D01*
X112256600Y-112583072D01*
X112289009Y-112746003D01*
X112289012Y-112746015D01*
X112352584Y-112899493D01*
X112352591Y-112899506D01*
X112444887Y-113037635D01*
X112444890Y-113037639D01*
X112562360Y-113155109D01*
X112562364Y-113155112D01*
X112700493Y-113247408D01*
X112700506Y-113247415D01*
X112853984Y-113310987D01*
X112853989Y-113310989D01*
X113016927Y-113343399D01*
X113016931Y-113343400D01*
X113016932Y-113343400D01*
X113183069Y-113343400D01*
X113183070Y-113343399D01*
X113346011Y-113310989D01*
X113499500Y-113247412D01*
X113637636Y-113155112D01*
X113755112Y-113037636D01*
X113847412Y-112899500D01*
X113910989Y-112746011D01*
X113943400Y-112583068D01*
X113943400Y-112416932D01*
X113910989Y-112253989D01*
X113865798Y-112144887D01*
X113847415Y-112100506D01*
X113847408Y-112100493D01*
X113755112Y-111962364D01*
X113755109Y-111962360D01*
X113637639Y-111844890D01*
X113637635Y-111844887D01*
X113541101Y-111780384D01*
X113496296Y-111726771D01*
X113487589Y-111657446D01*
X113517744Y-111594419D01*
X113562538Y-111562722D01*
X113599500Y-111547412D01*
X113737636Y-111455112D01*
X113855112Y-111337636D01*
X113947412Y-111199500D01*
X114010989Y-111046011D01*
X114036665Y-110916927D01*
X118156600Y-110916927D01*
X118156600Y-111083072D01*
X118189009Y-111246003D01*
X118189012Y-111246015D01*
X118252584Y-111399493D01*
X118252591Y-111399506D01*
X118344887Y-111537635D01*
X118344890Y-111537639D01*
X118462360Y-111655109D01*
X118462364Y-111655112D01*
X118600493Y-111747408D01*
X118600506Y-111747415D01*
X118753984Y-111810987D01*
X118753989Y-111810989D01*
X118916927Y-111843399D01*
X118916931Y-111843400D01*
X118916932Y-111843400D01*
X119083069Y-111843400D01*
X119083070Y-111843399D01*
X119246011Y-111810989D01*
X119399500Y-111747412D01*
X119442029Y-111718995D01*
X138299499Y-111718995D01*
X138326418Y-111854322D01*
X138326421Y-111854332D01*
X138379221Y-111981804D01*
X138379228Y-111981817D01*
X138455885Y-112096541D01*
X138455888Y-112096545D01*
X138553454Y-112194111D01*
X138553458Y-112194114D01*
X138668182Y-112270771D01*
X138668195Y-112270778D01*
X138765277Y-112310990D01*
X138795672Y-112323580D01*
X138795676Y-112323580D01*
X138795677Y-112323581D01*
X138931004Y-112350500D01*
X138931007Y-112350500D01*
X139068995Y-112350500D01*
X139160041Y-112332389D01*
X139204328Y-112323580D01*
X139331811Y-112270775D01*
X139446542Y-112194114D01*
X139544114Y-112096542D01*
X139620775Y-111981811D01*
X139673580Y-111854328D01*
X139682389Y-111810041D01*
X139700500Y-111718995D01*
X139700500Y-111581004D01*
X139673581Y-111445677D01*
X139673580Y-111445676D01*
X139673580Y-111445672D01*
X139661676Y-111416932D01*
X139620778Y-111318195D01*
X139620771Y-111318182D01*
X139544114Y-111203458D01*
X139544111Y-111203454D01*
X139446545Y-111105888D01*
X139446541Y-111105885D01*
X139331817Y-111029228D01*
X139331804Y-111029221D01*
X139204332Y-110976421D01*
X139204322Y-110976418D01*
X139068995Y-110949500D01*
X139068993Y-110949500D01*
X138931007Y-110949500D01*
X138931005Y-110949500D01*
X138795677Y-110976418D01*
X138795667Y-110976421D01*
X138668195Y-111029221D01*
X138668182Y-111029228D01*
X138553458Y-111105885D01*
X138553454Y-111105888D01*
X138455888Y-111203454D01*
X138455885Y-111203458D01*
X138379228Y-111318182D01*
X138379221Y-111318195D01*
X138326421Y-111445667D01*
X138326418Y-111445677D01*
X138299500Y-111581004D01*
X138299500Y-111581007D01*
X138299500Y-111718993D01*
X138299500Y-111718995D01*
X138299499Y-111718995D01*
X119442029Y-111718995D01*
X119537636Y-111655112D01*
X119655112Y-111537636D01*
X119680261Y-111499999D01*
X119747408Y-111399506D01*
X119747408Y-111399505D01*
X119747412Y-111399500D01*
X119810989Y-111246011D01*
X119843400Y-111083068D01*
X119843400Y-110916932D01*
X119810989Y-110753989D01*
X119807686Y-110746015D01*
X119747415Y-110600506D01*
X119747408Y-110600493D01*
X119655112Y-110462364D01*
X119655109Y-110462360D01*
X119537639Y-110344890D01*
X119537635Y-110344887D01*
X119399506Y-110252591D01*
X119399493Y-110252584D01*
X119246015Y-110189012D01*
X119246003Y-110189009D01*
X119083072Y-110156600D01*
X119083068Y-110156600D01*
X118916932Y-110156600D01*
X118916927Y-110156600D01*
X118753996Y-110189009D01*
X118753984Y-110189012D01*
X118600506Y-110252584D01*
X118600493Y-110252591D01*
X118462364Y-110344887D01*
X118462360Y-110344890D01*
X118344890Y-110462360D01*
X118344887Y-110462364D01*
X118252591Y-110600493D01*
X118252584Y-110600506D01*
X118189012Y-110753984D01*
X118189009Y-110753996D01*
X118156600Y-110916927D01*
X114036665Y-110916927D01*
X114043400Y-110883068D01*
X114043400Y-110716932D01*
X114010989Y-110553989D01*
X114004217Y-110537639D01*
X113947415Y-110400506D01*
X113947408Y-110400493D01*
X113855112Y-110262364D01*
X113855109Y-110262360D01*
X113737639Y-110144890D01*
X113737635Y-110144887D01*
X113599506Y-110052591D01*
X113599497Y-110052586D01*
X113533865Y-110025401D01*
X113533863Y-110025400D01*
X113446015Y-109989012D01*
X113446003Y-109989009D01*
X113283072Y-109956600D01*
X113283068Y-109956600D01*
X113116932Y-109956600D01*
X113116927Y-109956600D01*
X112953996Y-109989009D01*
X112953984Y-109989012D01*
X112800506Y-110052584D01*
X112800493Y-110052591D01*
X112662364Y-110144887D01*
X112662360Y-110144890D01*
X112544890Y-110262360D01*
X112544887Y-110262364D01*
X112452591Y-110400493D01*
X112452584Y-110400506D01*
X112389012Y-110553984D01*
X112389010Y-110553991D01*
X112381923Y-110589619D01*
X112349537Y-110651529D01*
X112288820Y-110686102D01*
X112236115Y-110687042D01*
X112083072Y-110656600D01*
X112083068Y-110656600D01*
X111916932Y-110656600D01*
X111916927Y-110656600D01*
X111753996Y-110689009D01*
X111753984Y-110689012D01*
X111600506Y-110752584D01*
X111600493Y-110752591D01*
X111462364Y-110844887D01*
X111462360Y-110844890D01*
X111344890Y-110962360D01*
X111344887Y-110962364D01*
X111252591Y-111100493D01*
X111252584Y-111100506D01*
X111189012Y-111253984D01*
X111189009Y-111253996D01*
X111156600Y-111416927D01*
X101000000Y-111416927D01*
X101000000Y-109916927D01*
X122256600Y-109916927D01*
X122256600Y-110083072D01*
X122289009Y-110246003D01*
X122289012Y-110246015D01*
X122352584Y-110399493D01*
X122352591Y-110399506D01*
X122444887Y-110537635D01*
X122444890Y-110537639D01*
X122562360Y-110655109D01*
X122562364Y-110655112D01*
X122700493Y-110747408D01*
X122700506Y-110747415D01*
X122853984Y-110810987D01*
X122853989Y-110810989D01*
X123016927Y-110843399D01*
X123016931Y-110843400D01*
X123016932Y-110843400D01*
X123183069Y-110843400D01*
X123183070Y-110843399D01*
X123346011Y-110810989D01*
X123499500Y-110747412D01*
X123637636Y-110655112D01*
X123755112Y-110537636D01*
X123847412Y-110399500D01*
X123910989Y-110246011D01*
X123943400Y-110083068D01*
X123943400Y-109916932D01*
X123943399Y-109916927D01*
X125156600Y-109916927D01*
X125156600Y-110083072D01*
X125189009Y-110246003D01*
X125189012Y-110246015D01*
X125252584Y-110399493D01*
X125252591Y-110399506D01*
X125344887Y-110537635D01*
X125344890Y-110537639D01*
X125462360Y-110655109D01*
X125462364Y-110655112D01*
X125600493Y-110747408D01*
X125600506Y-110747415D01*
X125753984Y-110810987D01*
X125753989Y-110810989D01*
X125916927Y-110843399D01*
X125916931Y-110843400D01*
X125916932Y-110843400D01*
X126083069Y-110843400D01*
X126083070Y-110843399D01*
X126246011Y-110810989D01*
X126399500Y-110747412D01*
X126399505Y-110747408D01*
X126399508Y-110747407D01*
X126486901Y-110689012D01*
X126501554Y-110679220D01*
X126568231Y-110658342D01*
X126635612Y-110676826D01*
X126682302Y-110728804D01*
X126688597Y-110745012D01*
X126752584Y-110899493D01*
X126752591Y-110899506D01*
X126844887Y-111037635D01*
X126844890Y-111037639D01*
X126962360Y-111155109D01*
X126962364Y-111155112D01*
X127100493Y-111247408D01*
X127100506Y-111247415D01*
X127253984Y-111310987D01*
X127253989Y-111310989D01*
X127416927Y-111343399D01*
X127416931Y-111343400D01*
X127416932Y-111343400D01*
X127583069Y-111343400D01*
X127583070Y-111343399D01*
X127746011Y-111310989D01*
X127899500Y-111247412D01*
X128037636Y-111155112D01*
X128155112Y-111037636D01*
X128247412Y-110899500D01*
X128310989Y-110746011D01*
X128343400Y-110583068D01*
X128343400Y-110416932D01*
X128310989Y-110253989D01*
X128307686Y-110246015D01*
X128247415Y-110100506D01*
X128247408Y-110100493D01*
X128155112Y-109962364D01*
X128155109Y-109962360D01*
X128037639Y-109844890D01*
X128037635Y-109844887D01*
X127899506Y-109752591D01*
X127899493Y-109752584D01*
X127746015Y-109689012D01*
X127746003Y-109689009D01*
X127583072Y-109656600D01*
X127583068Y-109656600D01*
X127416932Y-109656600D01*
X127416927Y-109656600D01*
X127253996Y-109689009D01*
X127253984Y-109689012D01*
X127100506Y-109752584D01*
X127100493Y-109752591D01*
X126998444Y-109820779D01*
X126931766Y-109841657D01*
X126864386Y-109823172D01*
X126817696Y-109771194D01*
X126811413Y-109755012D01*
X126747415Y-109600506D01*
X126747408Y-109600493D01*
X126655112Y-109462364D01*
X126655109Y-109462360D01*
X126537639Y-109344890D01*
X126537635Y-109344887D01*
X126506356Y-109323987D01*
X126399506Y-109252591D01*
X126399493Y-109252584D01*
X126337660Y-109226972D01*
X128446555Y-109226972D01*
X128446555Y-109393117D01*
X128478964Y-109556048D01*
X128478967Y-109556060D01*
X128542539Y-109709538D01*
X128542546Y-109709551D01*
X128634842Y-109847680D01*
X128634845Y-109847684D01*
X128752315Y-109965154D01*
X128752319Y-109965157D01*
X128890448Y-110057453D01*
X128890461Y-110057460D01*
X129043939Y-110121032D01*
X129043944Y-110121034D01*
X129163863Y-110144887D01*
X129206882Y-110153444D01*
X129206886Y-110153445D01*
X129206887Y-110153445D01*
X129373024Y-110153445D01*
X129373025Y-110153444D01*
X129535966Y-110121034D01*
X129689455Y-110057457D01*
X129827591Y-109965157D01*
X129945067Y-109847681D01*
X130037367Y-109709545D01*
X130100944Y-109556056D01*
X130133355Y-109393113D01*
X130133355Y-109226977D01*
X130100944Y-109064034D01*
X130040013Y-108916932D01*
X130037370Y-108910551D01*
X130037363Y-108910538D01*
X129945067Y-108772409D01*
X129945064Y-108772405D01*
X129827594Y-108654935D01*
X129827590Y-108654932D01*
X129689461Y-108562636D01*
X129689448Y-108562629D01*
X129535970Y-108499057D01*
X129535958Y-108499054D01*
X129373027Y-108466645D01*
X129373023Y-108466645D01*
X129206887Y-108466645D01*
X129206882Y-108466645D01*
X129043951Y-108499054D01*
X129043939Y-108499057D01*
X128890461Y-108562629D01*
X128890448Y-108562636D01*
X128752319Y-108654932D01*
X128752315Y-108654935D01*
X128634845Y-108772405D01*
X128634842Y-108772409D01*
X128542546Y-108910538D01*
X128542539Y-108910551D01*
X128478967Y-109064029D01*
X128478964Y-109064041D01*
X128446555Y-109226972D01*
X126337660Y-109226972D01*
X126246015Y-109189012D01*
X126246003Y-109189009D01*
X126083072Y-109156600D01*
X126083068Y-109156600D01*
X125916932Y-109156600D01*
X125916927Y-109156600D01*
X125753996Y-109189009D01*
X125753984Y-109189012D01*
X125600506Y-109252584D01*
X125600493Y-109252591D01*
X125462364Y-109344887D01*
X125462360Y-109344890D01*
X125344890Y-109462360D01*
X125344887Y-109462364D01*
X125252591Y-109600493D01*
X125252584Y-109600506D01*
X125189012Y-109753984D01*
X125189009Y-109753996D01*
X125156600Y-109916927D01*
X123943399Y-109916927D01*
X123910989Y-109753989D01*
X123884075Y-109689012D01*
X123847415Y-109600506D01*
X123847408Y-109600493D01*
X123755112Y-109462364D01*
X123755109Y-109462360D01*
X123637639Y-109344890D01*
X123637635Y-109344887D01*
X123499506Y-109252591D01*
X123499493Y-109252584D01*
X123346015Y-109189012D01*
X123346003Y-109189009D01*
X123183072Y-109156600D01*
X123183068Y-109156600D01*
X123016932Y-109156600D01*
X123016927Y-109156600D01*
X122853996Y-109189009D01*
X122853984Y-109189012D01*
X122700506Y-109252584D01*
X122700493Y-109252591D01*
X122562364Y-109344887D01*
X122562360Y-109344890D01*
X122444890Y-109462360D01*
X122444887Y-109462364D01*
X122352591Y-109600493D01*
X122352584Y-109600506D01*
X122289012Y-109753984D01*
X122289009Y-109753996D01*
X122256600Y-109916927D01*
X101000000Y-109916927D01*
X101000000Y-108916927D01*
X109756600Y-108916927D01*
X109756600Y-109083072D01*
X109789009Y-109246003D01*
X109789012Y-109246015D01*
X109852584Y-109399493D01*
X109852591Y-109399506D01*
X109944887Y-109537635D01*
X109944890Y-109537639D01*
X110062360Y-109655109D01*
X110062364Y-109655112D01*
X110200493Y-109747408D01*
X110200506Y-109747415D01*
X110353984Y-109810987D01*
X110353989Y-109810989D01*
X110508169Y-109841657D01*
X110516927Y-109843399D01*
X110516931Y-109843400D01*
X110516932Y-109843400D01*
X110683069Y-109843400D01*
X110683070Y-109843399D01*
X110846011Y-109810989D01*
X110999500Y-109747412D01*
X111137636Y-109655112D01*
X111255112Y-109537636D01*
X111347412Y-109399500D01*
X111410989Y-109246011D01*
X111443400Y-109083068D01*
X111443400Y-108916932D01*
X111410989Y-108753989D01*
X111369959Y-108654933D01*
X111347415Y-108600506D01*
X111347408Y-108600493D01*
X111255112Y-108462364D01*
X111255109Y-108462360D01*
X111137639Y-108344890D01*
X111137635Y-108344887D01*
X110999506Y-108252591D01*
X110999493Y-108252584D01*
X110846015Y-108189012D01*
X110846003Y-108189009D01*
X110683072Y-108156600D01*
X110683068Y-108156600D01*
X110516932Y-108156600D01*
X110516927Y-108156600D01*
X110353996Y-108189009D01*
X110353984Y-108189012D01*
X110200506Y-108252584D01*
X110200493Y-108252591D01*
X110062364Y-108344887D01*
X110062360Y-108344890D01*
X109944890Y-108462360D01*
X109944887Y-108462364D01*
X109852591Y-108600493D01*
X109852584Y-108600506D01*
X109789012Y-108753984D01*
X109789009Y-108753996D01*
X109756600Y-108916927D01*
X101000000Y-108916927D01*
X101000000Y-103102135D01*
X110489500Y-103102135D01*
X110489500Y-104897870D01*
X110489501Y-104897876D01*
X110495908Y-104957483D01*
X110546202Y-105092328D01*
X110546206Y-105092335D01*
X110632452Y-105207544D01*
X110632455Y-105207547D01*
X110747664Y-105293793D01*
X110747671Y-105293797D01*
X110882517Y-105344091D01*
X110882516Y-105344091D01*
X110889444Y-105344835D01*
X110942127Y-105350500D01*
X112737872Y-105350499D01*
X112797483Y-105344091D01*
X112932331Y-105293796D01*
X113047546Y-105207546D01*
X113133796Y-105092331D01*
X113182810Y-104960916D01*
X113224681Y-104904984D01*
X113290145Y-104880566D01*
X113358418Y-104895417D01*
X113386673Y-104916569D01*
X113500213Y-105030109D01*
X113672179Y-105155048D01*
X113672181Y-105155049D01*
X113672184Y-105155051D01*
X113861588Y-105251557D01*
X114063757Y-105317246D01*
X114273713Y-105350500D01*
X114273714Y-105350500D01*
X114486286Y-105350500D01*
X114486287Y-105350500D01*
X114696243Y-105317246D01*
X114898412Y-105251557D01*
X115087816Y-105155051D01*
X115174138Y-105092335D01*
X115259786Y-105030109D01*
X115259788Y-105030106D01*
X115259792Y-105030104D01*
X115410104Y-104879792D01*
X115410106Y-104879788D01*
X115410109Y-104879786D01*
X115535048Y-104707820D01*
X115535047Y-104707820D01*
X115535051Y-104707816D01*
X115539514Y-104699054D01*
X115587488Y-104648259D01*
X115655308Y-104631463D01*
X115721444Y-104653999D01*
X115760486Y-104699056D01*
X115764951Y-104707820D01*
X115889890Y-104879786D01*
X116040213Y-105030109D01*
X116212179Y-105155048D01*
X116212181Y-105155049D01*
X116212184Y-105155051D01*
X116401588Y-105251557D01*
X116603757Y-105317246D01*
X116813713Y-105350500D01*
X116813714Y-105350500D01*
X117026286Y-105350500D01*
X117026287Y-105350500D01*
X117236243Y-105317246D01*
X117438412Y-105251557D01*
X117627816Y-105155051D01*
X117714138Y-105092335D01*
X117799786Y-105030109D01*
X117799788Y-105030106D01*
X117799792Y-105030104D01*
X117950104Y-104879792D01*
X117950106Y-104879788D01*
X117950109Y-104879786D01*
X118075048Y-104707820D01*
X118075047Y-104707820D01*
X118075051Y-104707816D01*
X118079514Y-104699054D01*
X118127488Y-104648259D01*
X118195308Y-104631463D01*
X118261444Y-104653999D01*
X118300486Y-104699056D01*
X118304951Y-104707820D01*
X118429890Y-104879786D01*
X118580213Y-105030109D01*
X118752179Y-105155048D01*
X118752181Y-105155049D01*
X118752184Y-105155051D01*
X118941588Y-105251557D01*
X119143757Y-105317246D01*
X119353713Y-105350500D01*
X119353714Y-105350500D01*
X119566286Y-105350500D01*
X119566287Y-105350500D01*
X119776243Y-105317246D01*
X119978412Y-105251557D01*
X120167816Y-105155051D01*
X120254138Y-105092335D01*
X120339786Y-105030109D01*
X120339788Y-105030106D01*
X120339792Y-105030104D01*
X120490104Y-104879792D01*
X120490106Y-104879788D01*
X120490109Y-104879786D01*
X120615048Y-104707820D01*
X120615047Y-104707820D01*
X120615051Y-104707816D01*
X120619514Y-104699054D01*
X120667488Y-104648259D01*
X120735308Y-104631463D01*
X120801444Y-104653999D01*
X120840486Y-104699056D01*
X120844951Y-104707820D01*
X120969890Y-104879786D01*
X121120213Y-105030109D01*
X121292179Y-105155048D01*
X121292181Y-105155049D01*
X121292184Y-105155051D01*
X121481588Y-105251557D01*
X121683757Y-105317246D01*
X121893713Y-105350500D01*
X121893714Y-105350500D01*
X122106286Y-105350500D01*
X122106287Y-105350500D01*
X122316243Y-105317246D01*
X122518412Y-105251557D01*
X122707816Y-105155051D01*
X122794138Y-105092335D01*
X122879786Y-105030109D01*
X122879788Y-105030106D01*
X122879792Y-105030104D01*
X123030104Y-104879792D01*
X123030106Y-104879788D01*
X123030109Y-104879786D01*
X123115890Y-104761717D01*
X123155051Y-104707816D01*
X123159793Y-104698508D01*
X123207763Y-104647711D01*
X123275583Y-104630911D01*
X123341719Y-104653445D01*
X123380763Y-104698500D01*
X123385373Y-104707547D01*
X123424728Y-104761716D01*
X124057037Y-104129408D01*
X124074075Y-104192993D01*
X124139901Y-104307007D01*
X124232993Y-104400099D01*
X124347007Y-104465925D01*
X124410590Y-104482962D01*
X123778282Y-105115269D01*
X123778282Y-105115270D01*
X123832449Y-105154624D01*
X124021782Y-105251095D01*
X124223870Y-105316757D01*
X124433754Y-105350000D01*
X124646246Y-105350000D01*
X124856127Y-105316757D01*
X124856130Y-105316757D01*
X125058217Y-105251095D01*
X125247554Y-105154622D01*
X125301716Y-105115270D01*
X125301717Y-105115270D01*
X124669408Y-104482962D01*
X124732993Y-104465925D01*
X124847007Y-104400099D01*
X124940099Y-104307007D01*
X125005925Y-104192993D01*
X125022962Y-104129408D01*
X125655270Y-104761717D01*
X125655270Y-104761716D01*
X125694622Y-104707554D01*
X125791095Y-104518217D01*
X125856757Y-104316130D01*
X125856757Y-104316127D01*
X125890000Y-104106246D01*
X125890000Y-103893753D01*
X125889994Y-103893713D01*
X127384500Y-103893713D01*
X127384500Y-104106286D01*
X127417735Y-104316127D01*
X127417754Y-104316243D01*
X127483372Y-104518195D01*
X127483444Y-104518414D01*
X127579951Y-104707820D01*
X127704890Y-104879786D01*
X127855213Y-105030109D01*
X128027179Y-105155048D01*
X128027181Y-105155049D01*
X128027184Y-105155051D01*
X128216588Y-105251557D01*
X128418757Y-105317246D01*
X128628713Y-105350500D01*
X128628714Y-105350500D01*
X128841286Y-105350500D01*
X128841287Y-105350500D01*
X129051243Y-105317246D01*
X129253412Y-105251557D01*
X129442816Y-105155051D01*
X129614792Y-105030104D01*
X129728329Y-104916566D01*
X129789648Y-104883084D01*
X129859340Y-104888068D01*
X129915274Y-104929939D01*
X129932189Y-104960917D01*
X129981202Y-105092328D01*
X129981206Y-105092335D01*
X130067452Y-105207544D01*
X130067455Y-105207547D01*
X130182664Y-105293793D01*
X130182671Y-105293797D01*
X130317517Y-105344091D01*
X130317516Y-105344091D01*
X130324444Y-105344835D01*
X130377127Y-105350500D01*
X132172872Y-105350499D01*
X132232483Y-105344091D01*
X132367331Y-105293796D01*
X132482546Y-105207546D01*
X132568796Y-105092331D01*
X132619091Y-104957483D01*
X132623229Y-104918995D01*
X138299499Y-104918995D01*
X138326418Y-105054322D01*
X138326421Y-105054332D01*
X138379221Y-105181804D01*
X138379228Y-105181817D01*
X138455885Y-105296541D01*
X138455888Y-105296545D01*
X138553454Y-105394111D01*
X138553458Y-105394114D01*
X138668182Y-105470771D01*
X138668195Y-105470778D01*
X138795667Y-105523578D01*
X138795672Y-105523580D01*
X138795676Y-105523580D01*
X138795677Y-105523581D01*
X138931004Y-105550500D01*
X138931007Y-105550500D01*
X139068995Y-105550500D01*
X139160041Y-105532389D01*
X139204328Y-105523580D01*
X139331811Y-105470775D01*
X139446542Y-105394114D01*
X139544114Y-105296542D01*
X139620775Y-105181811D01*
X139673580Y-105054328D01*
X139700500Y-104918993D01*
X139700500Y-104781007D01*
X139700500Y-104781004D01*
X139673581Y-104645677D01*
X139673580Y-104645676D01*
X139673580Y-104645672D01*
X139671315Y-104640204D01*
X139620778Y-104518195D01*
X139620771Y-104518182D01*
X139544114Y-104403458D01*
X139544111Y-104403454D01*
X139446545Y-104305888D01*
X139446541Y-104305885D01*
X139331817Y-104229228D01*
X139331804Y-104229221D01*
X139204332Y-104176421D01*
X139204322Y-104176418D01*
X139068995Y-104149500D01*
X139068993Y-104149500D01*
X138931007Y-104149500D01*
X138931005Y-104149500D01*
X138795677Y-104176418D01*
X138795667Y-104176421D01*
X138668195Y-104229221D01*
X138668182Y-104229228D01*
X138553458Y-104305885D01*
X138553454Y-104305888D01*
X138455888Y-104403454D01*
X138455885Y-104403458D01*
X138379228Y-104518182D01*
X138379221Y-104518195D01*
X138326421Y-104645667D01*
X138326418Y-104645677D01*
X138299500Y-104781004D01*
X138299500Y-104781007D01*
X138299500Y-104918993D01*
X138299500Y-104918995D01*
X138299499Y-104918995D01*
X132623229Y-104918995D01*
X132625500Y-104897873D01*
X132625499Y-104000000D01*
X132625499Y-103102129D01*
X132625498Y-103102123D01*
X132625497Y-103102116D01*
X132619091Y-103042517D01*
X132617810Y-103039083D01*
X132568797Y-102907671D01*
X132568793Y-102907664D01*
X132482547Y-102792455D01*
X132482544Y-102792452D01*
X132367335Y-102706206D01*
X132367328Y-102706202D01*
X132232482Y-102655908D01*
X132232483Y-102655908D01*
X132172883Y-102649501D01*
X132172881Y-102649500D01*
X132172873Y-102649500D01*
X132172864Y-102649500D01*
X130377129Y-102649500D01*
X130377123Y-102649501D01*
X130317516Y-102655908D01*
X130182671Y-102706202D01*
X130182664Y-102706206D01*
X130067455Y-102792452D01*
X130067452Y-102792455D01*
X129981206Y-102907664D01*
X129981203Y-102907669D01*
X129932189Y-103039083D01*
X129890317Y-103095016D01*
X129824853Y-103119433D01*
X129756580Y-103104581D01*
X129728326Y-103083430D01*
X129614786Y-102969890D01*
X129442820Y-102844951D01*
X129253414Y-102748444D01*
X129253413Y-102748443D01*
X129253412Y-102748443D01*
X129051243Y-102682754D01*
X129051241Y-102682753D01*
X129051240Y-102682753D01*
X128889957Y-102657208D01*
X128841287Y-102649500D01*
X128628713Y-102649500D01*
X128580042Y-102657208D01*
X128418760Y-102682753D01*
X128216585Y-102748444D01*
X128027179Y-102844951D01*
X127855213Y-102969890D01*
X127704890Y-103120213D01*
X127579951Y-103292179D01*
X127483444Y-103481585D01*
X127417753Y-103683760D01*
X127384500Y-103893713D01*
X125889994Y-103893713D01*
X125856757Y-103683872D01*
X125856757Y-103683869D01*
X125791095Y-103481782D01*
X125694624Y-103292449D01*
X125655270Y-103238282D01*
X125655269Y-103238282D01*
X125022962Y-103870590D01*
X125005925Y-103807007D01*
X124940099Y-103692993D01*
X124847007Y-103599901D01*
X124732993Y-103534075D01*
X124669409Y-103517037D01*
X125301716Y-102884728D01*
X125247550Y-102845375D01*
X125058217Y-102748904D01*
X124856129Y-102683242D01*
X124646246Y-102650000D01*
X124433754Y-102650000D01*
X124223872Y-102683242D01*
X124223869Y-102683242D01*
X124021782Y-102748904D01*
X123832439Y-102845380D01*
X123778282Y-102884727D01*
X123778282Y-102884728D01*
X124410591Y-103517037D01*
X124347007Y-103534075D01*
X124232993Y-103599901D01*
X124139901Y-103692993D01*
X124074075Y-103807007D01*
X124057037Y-103870591D01*
X123424728Y-103238282D01*
X123424727Y-103238282D01*
X123385380Y-103292440D01*
X123385376Y-103292446D01*
X123380760Y-103301505D01*
X123332781Y-103352297D01*
X123264959Y-103369087D01*
X123198826Y-103346543D01*
X123159794Y-103301493D01*
X123155051Y-103292184D01*
X123155049Y-103292181D01*
X123155048Y-103292179D01*
X123030109Y-103120213D01*
X122879786Y-102969890D01*
X122707820Y-102844951D01*
X122518414Y-102748444D01*
X122518413Y-102748443D01*
X122518412Y-102748443D01*
X122316243Y-102682754D01*
X122316241Y-102682753D01*
X122316240Y-102682753D01*
X122154957Y-102657208D01*
X122106287Y-102649500D01*
X121893713Y-102649500D01*
X121845042Y-102657208D01*
X121683760Y-102682753D01*
X121481585Y-102748444D01*
X121292179Y-102844951D01*
X121120213Y-102969890D01*
X120969890Y-103120213D01*
X120844949Y-103292182D01*
X120840484Y-103300946D01*
X120792509Y-103351742D01*
X120724688Y-103368536D01*
X120658553Y-103345998D01*
X120619516Y-103300946D01*
X120615050Y-103292182D01*
X120490109Y-103120213D01*
X120339786Y-102969890D01*
X120167820Y-102844951D01*
X119978414Y-102748444D01*
X119978413Y-102748443D01*
X119978412Y-102748443D01*
X119776243Y-102682754D01*
X119776241Y-102682753D01*
X119776240Y-102682753D01*
X119614957Y-102657208D01*
X119566287Y-102649500D01*
X119353713Y-102649500D01*
X119305042Y-102657208D01*
X119143760Y-102682753D01*
X118941585Y-102748444D01*
X118752179Y-102844951D01*
X118580213Y-102969890D01*
X118429890Y-103120213D01*
X118304949Y-103292182D01*
X118300484Y-103300946D01*
X118252509Y-103351742D01*
X118184688Y-103368536D01*
X118118553Y-103345998D01*
X118079516Y-103300946D01*
X118075050Y-103292182D01*
X117950109Y-103120213D01*
X117799786Y-102969890D01*
X117627820Y-102844951D01*
X117438414Y-102748444D01*
X117438413Y-102748443D01*
X117438412Y-102748443D01*
X117236243Y-102682754D01*
X117236241Y-102682753D01*
X117236240Y-102682753D01*
X117074957Y-102657208D01*
X117026287Y-102649500D01*
X116813713Y-102649500D01*
X116765042Y-102657208D01*
X116603760Y-102682753D01*
X116401585Y-102748444D01*
X116212179Y-102844951D01*
X116040213Y-102969890D01*
X115889890Y-103120213D01*
X115764949Y-103292182D01*
X115760484Y-103300946D01*
X115712509Y-103351742D01*
X115644688Y-103368536D01*
X115578553Y-103345998D01*
X115539516Y-103300946D01*
X115535050Y-103292182D01*
X115410109Y-103120213D01*
X115259786Y-102969890D01*
X115087820Y-102844951D01*
X114898414Y-102748444D01*
X114898413Y-102748443D01*
X114898412Y-102748443D01*
X114696243Y-102682754D01*
X114696241Y-102682753D01*
X114696240Y-102682753D01*
X114534957Y-102657208D01*
X114486287Y-102649500D01*
X114273713Y-102649500D01*
X114225042Y-102657208D01*
X114063760Y-102682753D01*
X113861585Y-102748444D01*
X113672179Y-102844951D01*
X113500215Y-102969889D01*
X113386673Y-103083431D01*
X113325350Y-103116915D01*
X113255658Y-103111931D01*
X113199725Y-103070059D01*
X113182810Y-103039082D01*
X113133797Y-102907671D01*
X113133793Y-102907664D01*
X113047547Y-102792455D01*
X113047544Y-102792452D01*
X112932335Y-102706206D01*
X112932328Y-102706202D01*
X112797482Y-102655908D01*
X112797483Y-102655908D01*
X112737883Y-102649501D01*
X112737881Y-102649500D01*
X112737873Y-102649500D01*
X112737864Y-102649500D01*
X110942129Y-102649500D01*
X110942123Y-102649501D01*
X110882516Y-102655908D01*
X110747671Y-102706202D01*
X110747664Y-102706206D01*
X110632455Y-102792452D01*
X110632452Y-102792455D01*
X110546206Y-102907664D01*
X110546202Y-102907671D01*
X110495908Y-103042517D01*
X110489501Y-103102116D01*
X110489501Y-103102123D01*
X110489500Y-103102135D01*
X101000000Y-103102135D01*
X101000000Y-101924500D01*
X101019685Y-101857461D01*
X101072489Y-101811706D01*
X101124000Y-101800500D01*
X144675500Y-101800500D01*
X144742539Y-101820185D01*
G37*
%TD.AperFunction*%
%TD*%
M02*
